<?xml version="1.0" encoding="utf-8"?>
<!-- Generator: Adobe Illustrator 17.1.0, SVG Export Plug-In . SVG Version: 6.00 Build 0)  -->
<!DOCTYPE svg PUBLIC "-//W3C//DTD SVG 1.1//EN" "http://www.w3.org/Graphics/SVG/1.1/DTD/svg11.dtd">
<svg version="1.1" id="Ebene_1" xmlns="http://www.w3.org/2000/svg" xmlns:xlink="http://www.w3.org/1999/xlink" x="0px" y="0px"
	 viewBox="0 0 960 560" enable-background="new 0 0 960 560" xml:space="preserve">
<g>
	<path fill="#FFFFFF" d="M388.6,461.5c-4,0.3-7.9,0.6-11.9,0.8c-0.4,0-0.8-0.5-2-1.4c6.8-0.7,12.7-1.2,18.5-1.8c0-0.2,0-0.4,0-0.6
		c-3.7,0-7.3,0-11,0c-10.7,0.2-21.4,0.2-32.1,0.6c-7.7,0.3-15.5,0.4-23.1,1.7c-1.8,0.3-3.6,0.9-5.4,1.6c2.4-0.5,4.9-1,7.3-1.5
		c6.5-1.3,15.9-2.1,18.7,5.1c5.2,0.3,10.3,0.3,15.4-0.5c8.3-1.2,16.7-1.7,25.1-2.2c7.7-0.4,15.6,0.9,23.3,0.7c0.2-1.7,1.2-3.3,3-4
		c-1.1-0.1-2.4-0.5-3.5-0.5C403.5,460.1,396.1,460.9,388.6,461.5z M350.4,463c0-0.5-0.1-1-0.1-1.6c2-0.1,4-0.2,6-0.4l0.1,1.3
		C354.4,462.5,352.4,462.8,350.4,463z"/>
	<path fill="#FFFFFF" d="M690,65.1c-181.8,0-363.5,0-545.2,0v412.5c181.8,0,363.5,0,545.2,0C690,340.1,690,202.6,690,65.1z
		 M447.5,458.6c0-0.4,0-0.9,0-1.3h24.3C470,459.9,453.7,460.4,447.5,458.6z M660,390.5c0,1.7-0.9,3.2-2.2,4.1c0,0.6,0,1.2-0.2,1.8
		c0.1,1.1,0,2.2-0.5,3.1c0,2.5-1.6,5-4.8,5c-2.1,0-3.5-1-4.2-2.4c0,0,0,0,0,0c-0.5,1.3-1.6,2.4-3.1,2.8c-0.4,0.3-0.9,0.5-1.4,0.6
		c-0.2,0.1-0.4,0.2-0.6,0.3c-0.6,0.8-1.3,1.4-2.4,1.7c-0.7,0.5-1.6,0.7-2.7,0.7c0,0-0.1,0-0.1,0c-0.1,0-0.1,0-0.2,0
		c-0.5,0-0.9-0.1-1.3-0.1c0.3,2-0.4,4.1-2.3,5.2c-0.7,0.8-1.7,1.4-3,1.6c-0.3,0.9-0.9,1.8-1.7,2.4c-0.6,1.1-1.6,1.9-3,2.2
		c-0.5,0.5-1.1,0.9-1.8,1.1c-0.4,0.6-1,1.1-1.6,1.4c-0.3,0.6-0.7,1.2-1.3,1.6c-0.5,0.9-1.3,1.6-2.4,2c-0.7,1-1.7,1.7-3,1.9
		c-0.5,2-2,3.7-4.7,3.7c-0.2,0-0.5,0-0.7,0c-0.2,2.1-1.6,4-4,4.3c-0.3,1.1-0.9,2-1.9,2.6c-0.5,0.9-1.2,1.7-2.3,2.1
		c-0.4,0.4-0.8,0.7-1.3,0.9c-0.5,1-1.2,1.8-2.3,2.2c-0.4,0.7-1.1,1.2-1.9,1.6c-0.5,0.9-1.3,1.6-2.3,2c-0.4,0.7-0.9,1.3-1.7,1.7
		c-0.3,0.5-0.7,1-1.2,1.4c-0.5,1.1-1.3,2.1-2.5,2.6c-0.5,0.9-1.2,1.7-2.1,2.1c-0.4,0.6-1,1-1.7,1.3c-0.3,0.4-0.5,0.8-0.9,1.2
		c-0.3,0.8-0.7,1.5-1.4,2c-0.7,1.5-2.1,2.5-4.3,2.5c-5.1,0-6.2-6.4-3.1-8.9c0.3-0.5,0.6-1,1.1-1.4c0.1-0.2,0.2-0.4,0.3-0.6
		c-1.8,2.1-3.5,4.2-5.3,6.3c-0.4,0.4-1.1,0.9-1.5,0.8c-12.2-2.6-24.4,0.9-36.7,0c-2.3-0.2-4.6-0.9-6.9-1c-1.4-0.1-2.9,0.4-4.3,0.5
		c-0.6,0.1-1.3,0.2-2,0.1c-5.8-0.3-11.6-0.7-17.5-1c-0.4,0-0.8,0.4-1.2,0.8c0.1,0,0.1,0,0.2,0c0.7-0.4,1.5-0.6,2.3-0.6h0.3
		c1,0,1.9,0.3,2.7,0.8c0.3,0,0.5-0.1,0.8-0.1c0.8,0,1.5,0.2,2.1,0.4c5.1,1.3,4.7,9.8-1.3,9.8c-0.6,0-1.2-0.1-1.7-0.3
		c-0.2,0-0.5,0.1-0.8,0.1c-1.1,0-2.1-0.3-2.8-0.8c0,0,0,0,0,0c-0.7,0.4-1.5,0.6-2.4,0.6c-0.2,0-0.5,0-0.7,0
		c-0.7,0.3-1.4,0.5-2.3,0.5c-0.5,0-1-0.1-1.4-0.2c-0.6,0.3-1.3,0.4-2.1,0.4c-0.1,0-0.3,0-0.4,0c-0.8,0.5-1.7,0.8-2.6,0.8h-0.3
		c-0.3,0-0.6,0-0.9-0.1c-0.6,0.2-1.2,0.3-1.9,0.3c-1.1,0-2-0.3-2.8-0.8c-0.4-0.1-0.8-0.2-1.1-0.3c-0.6,0.2-1.2,0.3-1.9,0.3
		c-1.1,0-2-0.3-2.7-0.8c-6.3-0.2-6.2-10,0.2-10c0.9,0,1.6,0.2,2.3,0.5c3.5,0.1,7.1,0.1,10.6,0.2c0.1,0,0.2-0.1,0.3-0.1
		c0.7-0.5,1.7-0.9,2.8-0.9c0.6,0,1.1,0.1,1.6,0.2c0,0,0.1-0.1,0.1-0.1c0.1,0.1,0.2,0.2,0.3,0.3c0.1,0,0.1,0.1,0.2,0.1
		c0,0,0.1,0,0.1,0c0.3-0.1,0.5-0.3,0.9-0.3c-0.5,0-1.1-0.1-1.6-0.1c0,0,0,0,0.1,0.1c-6.4-0.5-12.7-1.2-19.1-1.5
		c-5.7-0.3-11.4-0.2-17.1-0.3c-4.2-0.1-8.5-0.8-12.7-0.5c-4.6,0.4-9,1.6-13.6,2.4c-1.7,0.3-3.4,0.3-5.9,0.6c2,0.3,3.3,0.5,5.1,0.8
		c-2.6,2.6-5.2,1.1-7.6,1.2c-1.5,0-3,0.1-4.5,0.1c-0.7,0-1.7,0.3-2.1-0.1c-1.7-1.5-2.8-1.4-4.6,0c0,0,0.1,0,0.1,0
		c1.2,0,2.1,0.3,2.9,0.9c1.6,0.3,2.7,1.4,3.3,2.7c3.5-0.1,6.9,0.3,10.1,2.1c5.7,3,0.6,11.7-5,8.6c-5-2.6-13.2,0.3-18.7-0.1
		c-8.2-0.6-16.2-0.8-24.4-0.2c-8.5,0.6-16.8,1.7-25.2,2.6c-3.9,0.4-7.5-0.4-11.4-0.6c-3.7-0.2-7.4-0.2-11.1-0.7
		c-2.4-0.3-4.2-2.3-4.8-4.5c-0.2,0-0.3,0-0.5,0c-4.3,1.2-8.6,2.3-13.1,2.8c-9.3,0.9-16.8,4.7-26.3,2.5c-1.6-0.4-2.6-1.3-3.2-2.4
		c-0.6,0.3-1.2,0.4-2,0.5c-2,0.1-4-0.1-6-0.5c-0.3,0-0.5,0-0.8,0h-0.9c-0.5,0-1-0.1-1.4-0.2c-2.4-0.5-4.3-2.2-4.3-4.9
		c0-2.5,2.3-5.2,5-5c0.3,0,0.6,0,0.9,0.1c0.7-0.4,1.6-0.7,2.4-0.7c1.8-0.1,3.5,0.2,5.3,0.3c-0.2-0.1-0.4-0.1-0.7-0.2
		c-1.8-0.3-3.5-0.4-5.3-0.5c-4.7-0.1-9.5,0.1-14.2-0.1c-6.4-0.3-12.8-1.3-19.2-1.4c-3,0-6,1.9-9.1,2.2c-5.1,0.6-10.2,0.5-15.3,0.9
		c-2.9,0.3-5.7,1.5-8.6,1.6c-3.8,0.2-7.7-0.3-11.5-0.3c-1.9,0-3.9,0.6-5.8,0.5c-2.4-0.1-4.9-0.4-7.1-1.2c-3.8-1.3-7.5-2.9-11.2-4.5
		c-1.3-0.6-2.4-1.5-3.7-2.2c-1.1-0.6-2.2-1.1-3.4-1.6c-0.3,0.3-0.6,0.5-0.9,0.8c-2.2-6.5-4.6-13.1-6.6-19.7c-0.6-2-0.5-4.1-0.6-6.2
		c-0.1-5-0.1-10-0.1-15.1c0-4.7-0.3-9.4,0.1-14.1c1.9-22.5,3.9-44.9,6-67.4c1.3-13.2,3-26.4,4.4-39.6c0.5-5.3,0.2-10.7,0.8-16
		c1.8-15.9,3.7-31.8,6-47.6c1.5-10.8,3.7-21.5,5.5-32.3c1.2-7.2,2.3-14.3,3.6-21.5c0.2-1.1,0.8-2.3,1.6-3
		c6.7-5.7,13.6-11.3,20.4-16.9c3.6-3,8.3-5.4,10.6-9.3c4.8-8,13.1-11.6,19.6-17.4c9.5-8.4,19.2-16.7,28.8-24.9
		c5.8-5,11.7-10,17.6-14.7c2.6-2.1,5.7-3.5,8.4-5.5c1.6-1.2,2.8-3,4.3-4.6c4.8,0,10.1,0.2,15.4,0c14.1-0.7,28.1-1.8,42.2-2.2
		c17.8-0.5,35.7-1.3,53.5-0.3c7.8,0.4,15.9,1.2,23.8,2.4c7.1,1,14.4,1.2,20.6,1.6c0.9-1.2,1.4-2.3,1.9-2.4c2.8-0.2,5.7-0.3,8.5-0.2
		c7,0.2,14,0.6,20.9,0.7c3.7,0.1,7.4-0.6,11.1-0.3c16,1,32,2.2,48,3.5c10.3,0.9,20.6,2.5,31,2.9c3.5,0.1,7,0.7,10.4,0.7
		c14.6-0.1,28.7,3.5,43,5.9c1.2,0.2,2.6-0.3,4.4-0.5c2.2,4.6,2.3,9.8,2.5,14.9c0.6,12.6,1.1,25.1,1.3,37.7c0.1,3.6-0.9,7.2-1.3,10.6
		c1.6,1.4,6.1,1.2,1.9,4.6c-0.9,0.7-0.1,3.4,0,5.2c0.1,1.2,0.8,2.5,0.6,3.7c-1.9,13.2,0.5,26.1,1.7,39.1c0.6,6.4,1.4,12.8,1.5,19.3
		c0,1.6-0.4,3.2-0.9,4.9c0.5,0,1-0.1,1.5-0.1c0.1,2,0.3,4,0.4,6c-0.5,0-1.1,0.1-1.6,0.1c-0.1-1.9-0.2-3.7-0.4-5.6
		c-0.4,1.5-0.9,3-0.9,4.5c-0.1,9.1,0.2,18.1,0.4,27.2c0,0.3,0.3,0.6,1,1.8v-25c0.4-0.1,0.7-0.2,1.1-0.2c0.3,1.1,0.9,2.3,0.9,3.4
		c0.2,8,0.1,16.1,0.4,24.1c0.4,11.7,1,23.4,1.6,35.1c0.2,4.3,0.3,8.7,0.6,13c0.6,7.7,1.4,15.3,2.2,23c0.4,3.2,1.3,6.4,1.5,9.7
		c0.2,2.6-1,5.5-0.3,7.9c2.1,7.1-1.6,14.1,0.9,21.6c0.5,1.4,0.7,2.9,0.9,4.5c0.4-0.1,0.9-0.2,1.3-0.2
		C659.2,384,660.7,387.5,660,390.5C660,390.4,660,390.5,660,390.5z"/>
	<path fill="#FFFFFF" d="M314.3,463.8c-3.5-0.2-7,0-10.4,0c-4.5,0-9.1,0.1-13.6,0c0.9,0.6,1.7,1.4,2.1,2.4c0.7-0.2,1.5-0.2,2.3,0
		c6.4,1.5,11.6-0.8,17.8-2c0.7-0.1,1.3-0.3,2-0.4C314.4,463.8,314.4,463.8,314.3,463.8z"/>
	<path fill="#FFFFFF" d="M634.5,399.3C634.5,399.2,634.5,399.2,634.5,399.3c-2.9,2.5-6.1,4.8-8.6,7.7c-0.4,0.4-0.7,0.9-1.1,1.4
		c0.3-0.1,0.7-0.2,1.1-0.3c0.3-1.1,1-2,2-2.6c0.8-1,2-1.7,3.7-1.7c0.4,0,0.8,0.1,1.2,0.2C632.6,402.3,633.2,400.4,634.5,399.3z"/>
	<path d="M653.1,379.7c-2.5-7.4,1.2-14.4-0.9-21.6c-0.7-2.4,0.5-5.3,0.3-7.9c-0.2-3.2-1.2-6.4-1.5-9.7c-0.8-7.6-1.6-15.3-2.2-23
		c-0.4-4.3-0.4-8.7-0.6-13c-0.5-11.7-1.2-23.4-1.6-35.1c-0.3-8-0.2-16.1-0.4-24.1c0-1.2-0.6-2.3-0.9-3.4c-0.4,0.1-0.7,0.2-1.1,0.2
		v25c-0.7-1.2-1-1.5-1-1.8c-0.2-9.1-0.5-18.1-0.4-27.2c0.1-3.2,1.9-6.5,1.9-9.7c-0.1-6.4-0.9-12.8-1.5-19.3c-1.1-13-3.5-26-1.7-39.1
		c0.2-1.2-0.5-2.4-0.6-3.7c-0.1-1.8-0.9-4.5,0-5.2c4.2-3.4-0.3-3.2-1.9-4.6c0.4-3.4,1.4-7,1.3-10.6c-0.2-12.6-0.7-25.1-1.3-37.7
		c-0.2-5.1-0.3-10.4-2.5-14.9c-1.9,0.2-3.2,0.7-4.4,0.5c-14.3-2.4-28.3-6-43-5.9c-3.4,0-6.9-0.6-10.4-0.7c-10.3-0.4-20.6-2.1-31-2.9
		c-16-1.3-32-2.5-48-3.5c-3.7-0.2-7.4,0.4-11.1,0.3c-7-0.1-14-0.5-20.9-0.7c-2.8-0.1-5.7,0-8.5,0.2c-0.5,0-1,1.2-1.9,2.4
		c-6.2-0.5-13.4-0.6-20.6-1.6c-7.9-1.2-16-1.9-23.8-2.4c-17.8-1-35.7-0.2-53.5,0.3c-14.1,0.4-28.1,1.5-42.2,2.2
		c-5.3,0.2-10.6,0-15.4,0c-1.5,1.6-2.7,3.4-4.3,4.6c-2.7,2-5.8,3.4-8.4,5.5c-6,4.8-11.8,9.7-17.6,14.7c-9.6,8.3-19.3,16.5-28.8,24.9
		c-6.5,5.8-14.8,9.4-19.6,17.4c-2.3,3.8-7,6.3-10.6,9.3c-6.8,5.6-13.6,11.2-20.4,16.9c-0.8,0.7-1.4,1.9-1.6,3
		c-1.3,7.1-2.4,14.3-3.6,21.5c-1.8,10.8-4,21.5-5.5,32.3c-2.2,15.8-4.1,31.7-6,47.6c-0.6,5.3-0.3,10.7-0.8,16
		c-1.3,13.2-3.1,26.4-4.4,39.6c-2.2,22.4-4.1,44.9-6,67.4c-0.4,4.7-0.1,9.4-0.1,14.1c0,5,0,10,0.1,15.1c0,2.1,0,4.3,0.6,6.2
		c2.1,6.6,4.4,13.1,6.6,19.7c0.3-0.3,0.6-0.5,0.9-0.8c1.1,0.5,2.3,1,3.4,1.6c1.3,0.7,2.4,1.7,3.7,2.2c3.7,1.6,7.4,3.2,11.2,4.5
		c2.3,0.8,4.7,1,7.1,1.2c1.9,0.1,3.9-0.5,5.8-0.5c3.8,0,7.7,0.5,11.5,0.3c2.9-0.2,5.7-1.3,8.6-1.6c5.1-0.5,10.2-0.4,15.3-0.9
		c3.1-0.4,6.1-2.2,9.1-2.2c6.4,0,12.8,1,19.2,1.4c4.7,0.2,9.4,0,14.2,0.1c1.8,0,3.6,0.2,5.3,0.5c0.2,0,0.4,0.1,0.7,0.2
		c0.2,0,0.5,0,0.7,0c0.9,0,1.8,0.3,2.5,0.8c4.5,0.1,9.1,0,13.6,0c3.5,0,7-0.2,10.4,0c0.1,0,0.1,0,0.2,0c2.4-0.5,4.8-1,7.3-1.5
		c1.8-0.6,3.6-1.3,5.4-1.6c7.6-1.2,15.3-1.4,23.1-1.7c10.7-0.4,21.4-0.4,32.1-0.6c3.7-0.1,7.3,0,11,0c0,0.2,0,0.4,0,0.6
		c-5.9,0.6-11.7,1.1-18.5,1.8c1.3,0.9,1.7,1.4,2,1.4c4-0.2,7.9-0.4,11.9-0.8c7.4-0.6,14.9-1.3,22.3-1.9c1.1-0.1,2.4,0.3,3.5,0.5
		c0.5-0.2,1.1-0.3,1.7-0.3c1.8-1.4,3-1.6,4.6,0c0.4,0.4,1.4,0.1,2.1,0.1c1.5,0,3,0,4.5-0.1c2.4-0.1,5,1.4,7.6-1.2
		c-1.8-0.3-3.1-0.5-5.1-0.8c2.5-0.2,4.2-0.3,5.9-0.6c4.5-0.8,9-2.1,13.6-2.4c4.2-0.3,8.5,0.3,12.7,0.5c5.7,0.2,11.4,0,17.1,0.3
		c6.4,0.3,12.8,1,19.1,1.5l-0.1,0c0.5,0,1.1,0.1,1.6,0.1c0.4-0.1,0.9-0.2,1.5-0.2c0.3,0,0.5,0,0.8,0.1c0.4-0.4,0.8-0.8,1.2-0.8
		c5.8,0.3,11.6,0.6,17.5,1c0.6,0,1.3-0.1,2-0.1c1.4-0.2,2.9-0.6,4.3-0.5c2.3,0.2,4.6,0.8,6.9,1c12.2,1,24.4-2.6,36.7,0
		c0.4,0.1,1.1-0.4,1.5-0.8c1.8-2.1,3.6-4.2,5.3-6.3c0.4-0.9,1.2-1.6,2.1-2.1c0.5-0.8,1.1-1.4,2-1.8c0.5-0.6,1.1-1.1,1.9-1.4
		c0.3-0.6,0.8-1.2,1.3-1.6c0.4-1,1-1.8,2-2.3c0.5-0.9,1.3-1.6,2.3-2c0.5-0.8,1.1-1.5,2-1.9c0.5-0.8,1.2-1.5,2.2-1.9
		c0.4-0.7,1.1-1.2,1.8-1.6c0.5-1,1.3-1.8,2.4-2.3c0.2-0.2,0.5-0.4,0.7-0.6c0.6-1.2,1.8-2.2,3.5-2.4c0.4-1.5,1.5-2.8,3.3-3.2
		c0.3-0.2,0.6-0.4,1-0.7c0.1,0.2,0.1,0.3,0.2,0.5c0,0,0.1,0,0.1,0c0.2,0,0.5,0,0.7,0.1c0.2-2,1.5-3.9,3.9-4.3
		c0.3-1.5,1.3-2.9,2.9-3.5c0.3-0.4,0.6-0.7,1-1c0.4-0.7,1.1-1.4,1.9-1.8c0.5-1,1.4-1.9,2.7-2.3c0.6-0.8,1.5-1.5,2.7-1.8
		c0.2-0.2,0.3-0.3,0.5-0.4c0.5-0.9,1.3-1.7,2.4-2c0.3-0.5,0.7-0.9,1.1-1.4c2.5-2.9,5.6-5.2,8.5-7.7c0,0,0,0.1,0.1,0.1
		c0.2-0.2,0.5-0.4,0.7-0.5c0.4-0.7,0.9-1.3,1.7-1.7c0.7-1.2,1.8-2,3.4-2.2c0.5-0.3,1-0.6,1.7-0.8c0.4-0.4,0.9-0.7,1.4-0.9
		c0.2-0.1,0.4-0.2,0.6-0.3c0.3-0.3,0.7-0.5,1.1-0.7c0.2-0.2,0.3-0.4,0.5-0.5c0.2-0.2,0.3-0.3,0.5-0.5c0.3-0.5,0.7-0.9,1.1-1.2
		c0.4-0.6,0.9-1,1.5-1.4c0.4-1.3,1.4-2.5,2.9-3c0.6-0.7,1.3-1.2,2.3-1.4C653.9,382.6,653.6,381.1,653.1,379.7z M203.2,169.7
		c5-4.8,9.9-9.7,15.2-14.2c10.1-8.7,20.5-17.1,30.5-25.8c9.5-8.2,18.5-16.8,28.1-24.9c8.3-7,17-13.5,25.6-20.1
		c0.8-0.6,2-1.1,3.1-1.1c14.3-0.6,28.7-1.1,43-1.6c10.5-0.4,20.9-0.9,31.4-0.9c6.8,0,13.6,1.1,20.4,1.3c8.1,0.3,16.2,0.1,24.3,0.4
		c8.8,0.4,17.6,1.3,26.5,1.7c9.7,0.4,19.5,0.3,29.2,0.6c5,0.1,10,0.5,15,0.6c1.2,0,2.4-0.9,3.5-1.9c44.4,0.7,88.4,7.7,132.6,11.7
		c0.1,0.4,0.1,0.9,0.2,1.3c-4.5,2.7-9.2,5.3-13.6,8.2c-3.5,2.3-8.3,4.3-9.8,7.6c-1.8,3.9-5,5.5-7.4,8.1c-3.8,4.1-8.3,7.4-12.3,11.2
		c-5.1,4.8-10.2,9.6-14.8,14.8c-1.9,2.1-2.6,5.4-4.2,7.9c-1.1,1.8-2.6,3.2-4,4.8c-3.7,4.3-7.3,8.7-11.1,12.9c-0.9,1-2.5,1.8-3.7,1.8
		c-12-0.5-23.9-1.3-35.8-2c-0.4,0-0.9-0.1-1.3-0.7h13.1c0-0.5,0-1,0-1.4h-74.8c0,0.1-0.1,0.2-0.1,0.3c1.1,0.3,2.1,0.5,3.2,0.8
		c-12.2-3.1-24.3,0.4-36.4-0.1c0,0.3,0,0.7,0,1c6.2-0.3,12.3-0.6,18.5-0.8l0,1.1c-9,0.4-18,0.8-27.1,1.2c0-0.2-0.1-0.5-0.1-0.7
		c2-0.3,4-0.5,6-0.8c0-0.3-0.1-0.6-0.1-0.8c-4.7,0.5-9.3,1.1-14,1.5c-3.6,0.3-7.3,0.6-11,0.6c-12.5,0.1-25-0.9-37.4,0.4
		c-14.5,1.4-28.8-0.4-43.2-0.8c-6.1-0.2-12.1-1.2-18.7-1.9c1.3,0.6,2.3,1,3.2,1.4c0,0.3,0,0.5,0,0.8c-1.9,0-3.8,0-5.8,0
		c-12.5-0.2-25-0.3-37.4-0.6c-0.9,0-1.9-0.7-3.6-1.5c-14.1,0.7-29.6,1.5-45.7,2.3C202.6,171.8,202.5,170.4,203.2,169.7z
		 M371.2,176.2h-11.5c0-0.2,0-0.5,0-0.7h11.4C371.2,175.7,371.2,175.9,371.2,176.2z M559.9,444c-0.7,4.2-6,5-8.6,2.4
		c-2.1,0.2-4.4,1.2-6.6,1.2c-3.1,0.1-6.2-0.5-9.4-0.9c-0.6-0.1-1.5-0.5-1.8-0.2c-3.6,3.1-7.8,1.2-11.8,1.8v-4.2
		c-3.2,0.2-6.4,0.3-9.5,0.5c-0.7,0-1.5,0.5-2.1,0.3c-0.2-0.1-0.3-0.3-0.3-0.7c-0.4,0.1-0.8,0.1-1.2,0.1c-0.8,0-1.5-0.2-2.1-0.4
		c-1,2.7-3.6,2.8-6.9,3.1c-10.1,0.8-20.1,2.6-30.2,3.5c-7.5,0.6-15.1,0.9-22.6,0.2c-11.1-1-22.1-1-33.1,0.5
		c-8.7,1.2-17.2,2.6-26.1,2.5c-12.4-0.1-24.9,0.5-37.3,0.8c-1.5,0-3.1-0.7-4.4-0.3c-2.6,0.7-6.5-2.6-7.8,2.4
		c-3.7,0-8.1,1.2-10.8-0.4c-0.1,0-0.2-0.1-0.2-0.1c-0.3,0-0.6,0.1-0.9,0.1c-0.2,0-0.4,0-0.6,0c-0.2,0-0.3,0-0.5,0
		c-0.2,0-0.5,0-0.7,0c-0.4,0.1-0.8,0.2-1.3,0.2c-0.3,0-0.5,0-0.7-0.1c-0.1,0-0.1,0-0.2,0c0,0.1,0.1,0.2,0.1,0.3
		c-0.8,0.3-1.5,0.7-2.3,0.8c-4.7,0.3-9.5,0.6-14.2,0.7c-1.5,0-3-0.7-4.5-1.2c-0.4-0.1-0.8-0.6-1.2-0.6c-4.2,0.4-8.5,0.7-12.7,1.3
		c-3.4,0.5-6.7,2.3-10,2.1c-17.1-0.9-34.2-2.3-51.3-3.4c-4.8-0.3-9.7,0.2-14.5,0.1c-13.1-0.4-26.2-1-39.2-1.5
		c-0.5-9.7-1-18.7-1.4-27.7c-0.3-5.7-0.8-11.4-0.6-17c0.1-3.2,1.5-6.5,2.2-9.1c-0.7-1.2-1.6-2.1-1.6-3c0-6.7,0-13.4,0.4-20.1
		c0.6-10.9,1.6-21.8,2.4-32.7c0.2-2.6,0-5.2,0.2-7.8c0.1-1.3,0.7-2.6,1.2-3.9c0.1-0.3,0.6-0.6,0.6-0.8c-0.3-5.7-0.7-11.5-0.8-17.2
		c-0.1-3.1,0.3-6.2,0.8-9.3c0.8-5.7,1.9-11.3,2.5-17c0.6-5.6,0.7-11.3,1.3-16.9c0.8-7.7,1.8-15.3,2.7-23c0.9-8.2,1.7-16.3,2.7-24.5
		c0.5-4.3,0.3-9.1,2.3-12.8c4.7-8.7,2.3-18.5,5.2-27.4c1.1-3.3,4.1-6.4,7.6-6.5c15.2-0.5,30.3-0.9,45.5-1.3c7.6-0.2,15.2-0.2,22.8,0
		c15.6,0.3,31.2,0.7,46.8,1c0.3,0,0.7,0.2,1.7,0.5c-1.1,0.7-1.7,1-2,1.2c34.2,0.3,68.6,0.6,102.9,0.9c0.8-0.6,1.7-0.9,2.9-0.9
		c0.1,0,0.2,0,0.4,0c0.5-0.2,1-0.3,1.6-0.3c0.6-0.6,1.4-1,2.5-1.2c0,0,0,0,0-0.1c0.2,0,0.5,0,0.7,0c0,0,0.1,0,0.1,0
		c0.1,0,0.1,0,0.2,0c2.7,0,5.5,0.1,8.2,0c0.5,0,0.9,0,1.4,0c1.7-0.5,3.4-0.9,5.2-1.1c0.2,0,0.3,0,0.5-0.1c0.5-0.3,0.9-0.7,1.4-1.3
		c1.2-1.4,4.7-1.1,7.2-1.1c13.3-0.1,26.7-0.4,40-0.1c17.3,0.4,34.7,1.4,52,2.2c2.6,0.1,5.2,0.1,7.9,0c2.2-0.1,3.1,0.9,3.2,3.1
		c0.1,7.2,0.3,14.4,0.6,21.6c0.3,8,0.8,15.9,1.1,23.9c0.2,6.3,0.4,12.5,0.2,18.8c-0.2,5.8-1.4,11.7-1.2,17.5
		c0.3,7.4,1.7,14.7,2.3,22c0.5,6.4,0.4,12.9,0.8,19.3c0.2,3.4,1.1,6.8,1.1,10.3c-0.1,4.9-0.7,9.9-0.6,14.9c0.1-0.9,0.2-1.8,0.3-2.8
		c0.2,0.2,0.4,0.3,0.4,0.4c0,8.7-0.1,17.4,0,26.1c0.1,4.9,0.6,9.9,1,15.3c-0.1,0-0.1-0.1-0.2-0.1c0,0.3,0,0.6-0.1,0.9
		c0.4,1,0.5,2.2,0.3,3.2c0.2,0.6,0.4,1.1,0.4,1.6c0.3,1.5,0.2,3,0.1,4.6c-0.1,0.7-0.1,1.3-0.1,2c0,0.6,0,1.2-0.1,1.8
		c0,0.4,0,0.8,0,1.1c0.3,1,0.4,2.1,0.1,3.2c0,0.6,0.1,1.3,0.1,1.9c0.3,3.4,0.7,6.7,0.5,10.1c-0.1,2.8-0.6,5.9,0.2,8.6
		c1.7,6.2-0.5,11.2-0.6,17.3c-0.1,6.6,0.5,13.1,0.6,19.7c0.7,0.8,1.7,1.6,2.1,2.8C561.4,445,560.7,444.5,559.9,444z M646.1,382.3
		c-0.6,1.4-1.8,2.5-3.5,2.8c-0.4,0.6-0.9,1.1-1.6,1.4c-0.7,1-1.7,1.7-3,1.9c-0.2,0.2-0.5,0.3-0.7,0.4c-0.3,0.3-0.7,0.5-1.1,0.7
		c-0.1,0.1-0.2,0.2-0.4,0.3c-0.2,0.2-0.5,0.4-0.8,0.6c-0.4,0.6-1,1.1-1.7,1.5c-0.3,0.3-0.6,0.7-0.9,0.9c-0.2,0.2-0.4,0.5-0.6,0.7
		c-0.1,0.6-0.5,0.9-1.3,0.8c-0.5,0.5-1.1,0.9-1.8,1.1c-0.2,0.2-0.4,0.5-0.7,0.7c-0.4,1.1-1.2,2-2.3,2.5c-0.3,0.4-0.8,0.8-1.3,1
		c-1.1,1-2.5,1.8-3.8,2.7c0,0-0.1-0.1-0.1-0.1c-0.3,0.1-0.7,0.2-1.1,0.2c-0.2,0.1-0.5,0.2-0.8,0.3c-0.5,0.6-1,1-1.8,1.3
		c-0.2,0.2-0.4,0.4-0.7,0.6c-0.3,0.3-0.6,0.6-1,0.8c-0.3,0.4-0.7,0.8-1.1,1c-0.3,0.5-0.8,0.9-1.3,1.2c-0.4,0.7-1.1,1.3-1.9,1.6
		c-0.4,0.7-1,1.4-1.7,1.8c0.2,0.2,0.3,0.4,0.5,0.6c-0.2,0.2-0.6,0.5-0.6,0.4c-0.2-0.2-0.5-0.4-0.7-0.5c-0.3,0.3-0.7,0.6-1.1,0.8
		c-0.5,0.8-1.2,1.4-2,1.8c-0.1,0.2-0.2,0.4-0.4,0.5l-0.4,0.4c-0.5,0.5-1.1,0.9-1.7,1.1c-0.5,0.7-1.2,1.3-2.1,1.6
		c-0.6,0.8-1.5,1.4-2.4,1.7c-0.5,1.2-1.5,2.2-3,2.6c-0.4,0.9-1.1,1.6-2.1,2.1c-0.4,1.2-1.1,2.2-2.3,2.8c-0.3,0.5-0.8,1-1.3,1.4
		c-0.4,0.8-0.9,1.6-1.7,2.1c-0.4,0.7-1,1.4-1.8,1.8c-0.4,0.6-0.8,1.1-1.4,1.4c-0.3,0.3-0.6,0.7-1,0.9c-0.3,0.7-0.8,1.4-1.5,1.8
		c0,0,0,0-0.1,0.1c-0.1,0.8-0.3,1.6-0.4,2.5c-0.4-0.4-0.8-0.7-1.2-1c-0.5,0.3-1.1,0.5-1.8,0.6c-0.4,0.8-0.9,1.5-1.7,2
		c-0.6,1.4-1.8,2.5-3.7,2.7c-0.5,0.4-1,0.9-1.5,1.3c-1,0.8-2.2,1.3-3.8,2.2c-0.1-3,0-4.6,0.6-5.4c-0.8-1.2-1.1-2.7-0.8-4.1
		c-1-1.3-1.3-3.1-0.9-4.7c-0.7-2.2-0.9-4.4-0.9-6.7c-0.6-1.9-0.3-3.4-0.3-5.6c0-3-0.4-5.9-0.5-8.9c0-0.7-0.1-1.4-0.1-2.1
		c-0.4-0.5-0.8-1-1.3-1.6c0.4-0.1,0.8-0.2,1.2-0.3c0-1.1-0.1-2.3-0.1-3.4c-0.5-0.8-0.5-1.5,0-2.2c0-1.4,0-2.9,0.1-4.4
		c0-0.3,0.1-0.7,0.1-1c-0.3-0.2-0.5-0.4-0.5-0.5c-0.4-6.5-0.7-13-0.8-19.4c0-0.2,0.3-0.5,0.8-0.7c-0.1-0.6-0.1-1.2,0-1.7
		c-0.6-1.4-0.6-3.1,0.1-4.5c-0.7-1-1.1-2.3-1.1-3.8c-0.3-7.1-0.1-14.2-0.1-21.8c-0.1-0.1-0.9-0.4-1.3-0.6
		c-0.4-7.2-0.9-14.2-1.1-21.2c-0.2-6.5,0.1-13.1-0.1-19.6c-0.1-4.1-1.1-8.2-1.1-12.3c0-4.3,0.6-8.6,0.9-12.8c0-0.5,0.3-1.2,0-1.4
		c-4.1-4.7-1.3-10.1-1.4-15.1c-0.1-5.1,0.9-10.2,1.5-15.2c0-0.1,0.1-0.3,0-0.4c-4.5-4.9-0.6-10.9-2-16.4c-1.4-5.6-0.5-11.9-0.5-17.8
		c0-6.2,0.4-12.4,0.1-18.6c-0.2-3.6-1.2-7.2-1.9-10.8c-0.6-3.1,1.3-7.6,4-9.1c0.7-0.4,1.6-0.7,2.1-1.3c4.7-6.5,9.2-13.2,14.2-19.6
		c10-12.9,21.7-24.1,33.9-34.7c7.5-6.5,15.4-12.5,23.7-19.2c1.7,6.9,1.9,13.1,1.2,19.4c-0.1,1-0.7,1.9-0.6,2.9
		c0.5,7.2,1.2,14.4,1.8,21.6c0.1,0.7,0.2,1.5,0.2,2.2c-0.2,12.1-0.5,24.2-0.4,36.3c0,2.8-0.5,5.7,1.8,8.7c1.8,2.3,1.1,6.7,1.2,10.2
		c0.1,6.1-0.3,12.2-0.3,18.2c0,11.7-0.1,23.5,0.1,35.2c0.1,6.4,0.7,12.9,0.8,19.3c0.2,6.8-0.2,13.7,0.1,20.5
		c0.4,7.8,1.5,15.6,2.1,23.4c0.7,9.4,1.3,18.9,1.7,28.3c0.1,1.9-1.4,3.7-1.8,5.7c-0.2,1.2,0.1,2.7,0.6,3.9c0.4,0.7,1.6,1,1.9,1.3
		c0.2,2.9,0.3,5.3,0.5,8.3c-0.5-0.3-1.3-0.7-2.4-1.3c-0.2,0.8-0.6,1.5-1.1,2.1c0.2,0.5,0.6,0.9,1.6,1.4c2.2,1.1,2.4,4.1,1,6.2
		c1.1,0.9,1.6,2.3,1.7,3.7c0.3,0,0.7,0,1,0.1c0.2,2.5,0.3,5,0.5,7C646.9,382,646.5,382.1,646.1,382.3z"/>
	<path d="M447.5,457.3c8,0,16,0,24.3,0c-1.7,2.6-18.1,3.1-24.3,1.3C447.5,458.2,447.5,457.8,447.5,457.3z"/>
	<path d="M482.8,457.8c0.2,0.1,0.3,0.2,0.4,0.3c0.6,0,1.2,0.1,1.7,0.3c0.5-0.2,1.2-0.3,1.9-0.3c1.1,0,2.1,0.3,2.8,0.8
		c0.1,0,0.1,0,0.2,0c0.5-0.2,1.1-0.3,1.7-0.3h0.3c0.1,0,0.2,0,0.3,0c0.4-0.3,0.8-0.5,1.4-0.6C489.8,457.9,486.3,457.8,482.8,457.8z"
		/>
	<path d="M644,239.2c-0.1-2-0.3-4-0.4-5.9c0.5,0,1.1-0.1,1.6-0.1c0.1,2,0.3,4,0.4,6C645.1,239.1,644.5,239.1,644,239.2z"/>
	<path d="M350.3,461.4c2-0.1,4-0.2,6-0.4c0,0.4,0.1,0.8,0.1,1.3c-2,0.2-4,0.4-5.9,0.7C350.3,462.5,350.3,461.9,350.3,461.4z"/>
	<path fill="#FFFFFF" d="M550,443c0-0.1,0-0.2,0-0.3c-0.8-0.9-1.3-2-1.2-3.3c0.1-1.3,0.2-2.6,0.2-3.9c0-0.6,0-1.1,0.1-1.7
		c0,0,0-1.7,0.1-0.9c0-0.1,0-0.2,0-0.3c-0.3-0.6-0.4-1.3-0.3-2c0-0.1,0-0.3,0-0.4c-0.3,0.6-0.8,1.1-1.3,1.5
		c-0.2,0.9-0.6,1.7-1.3,2.4c-0.1,0.1-0.2,0.2-0.3,0.3c-0.1,0.1-0.3,0.3-0.4,0.4c-0.2,1.1-0.7,2.2-1.5,2.9c0,0.3,0.1,0.6,0.1,0.9
		c-0.2-0.2-0.3-0.4-0.5-0.6c-0.7,0.5-1.7,0.9-2.9,0.9c-0.2,0-0.4,0-0.6,0c0,0,0,0.1,0,0.1c-0.4-0.1-0.7-0.2-1-0.3
		c-3.7-1.1-4.2-6.3-1.6-8.6c0.2-1,0.6-1.9,1.4-2.7c0.1-0.1,0.2-0.2,0.3-0.3c0.3-0.3,0.5-0.5,0.8-0.7c0.4-2,2-3.8,4.7-3.8
		c0.3,0,0.6,0,0.9,0.1c0-0.4,0-0.8,0.1-1.2c-0.3-1.2-0.1-2.5,0.4-3.7c-1.5,0.7-3.2,0.5-4.7-0.3c-2.3-0.5-4-2.4-4-4.9
		c0-2.1,1.4-4.1,3.4-4.8c0.7-1.5,2.1-2.6,4.3-2.6c1.7,0,3,0.7,3.8,1.8c0.1-0.1,0.1-0.1,0.2-0.2c-0.2-0.2-0.3-0.5-0.4-0.7
		c-0.1-0.1-0.2-0.2-0.3-0.4c-0.6-1.1-0.7-1.6-0.8-2.8c-0.1-0.9,0.3-1.9,0.8-2.7c-1.2-1.5-1.4-3.8-0.6-5.6c0-0.1,0-0.3,0-0.4
		c-0.6-1.3-0.7-2.9-0.1-4.3c-0.6-1.7-0.4-3.8,0.7-5.2c0-0.1,0-0.2,0-0.3c-0.7-1.4-0.8-3.1-0.2-4.5c-0.7-1.9-0.4-4.3,1.1-5.7
		c-2.5-0.2-3.9-2-4.2-4c-1.8-2.3-1.3-6.4,1.5-7.8c0.5-1.1,1.5-1.9,2.8-2.3c-1.2-1.6-1.3-3.9-0.4-5.7c-4.1-2-3.3-9.5,2.2-9.5
		c4.3,0,5.8,4.5,4.3,7.5c3.7,1.8,3.4,8-0.7,9.3c2.1,0.5,3.9,2.3,3.9,4.7c0.1,0,0.1,0.1,0.2,0.1c-0.4-5.4-0.9-10.4-1-15.3
		c-0.1-8.7,0-17.4,0-26.1c0-0.1-0.2-0.2-0.4-0.4c-0.1,1-0.2,1.9-0.3,2.8c0-5,0.6-9.9,0.6-14.9c0-3.4-0.9-6.8-1.1-10.3
		c-0.4-6.4-0.3-12.9-0.8-19.3c-0.6-7.4-2-14.7-2.3-22c-0.2-5.8,1-11.6,1.2-17.5c0.2-6.3,0-12.5-0.2-18.8c-0.3-8-0.8-15.9-1.1-23.9
		c-0.3-7.2-0.5-14.4-0.6-21.6c0-2.2-0.9-3.1-3.2-3.1c-2.6,0.1-5.2,0.1-7.9,0c-17.3-0.7-34.7-1.7-52-2.2c-13.3-0.3-26.7-0.1-40,0.1
		c-2.5,0-6-0.3-7.2,1.1c-0.4,0.5-0.9,0.9-1.4,1.3c4.9-0.7,9.8-0.7,14.8-0.6c5.1,0.1,10.2,0.3,15.3,0.2c5-0.1,8.7,1.2,13.5,2.6
		c6.2,1.8,3.5,11.5-2.7,9.6c-3-0.9-5.8-2.4-9-2.3c-2.3,0.1-4.7-0.1-7-0.1c-5.1-0.1-10.2-0.3-15.3-0.1c-5.1,0.1-9.9,0.5-14.7,2.3
		c-3.4,1.3-6.6,2.1-10.2,1c-0.3-0.1-0.6-0.2-0.9-0.4c-0.1,0-0.2-0.1-0.4-0.1c-0.6,0.3-1.3,0.4-2.1,0.4c-0.1,0-0.2,0-0.3,0
		c-0.5,0.2-1.1,0.3-1.7,0.3c-5.3,0-6.2-6.6-2.9-9.1c-34.4-0.3-68.7-0.6-102.9-0.9c0.4-0.2,0.9-0.5,2-1.2c-1-0.3-1.4-0.5-1.7-0.5
		c-15.6-0.4-31.2-0.7-46.8-1c-7.6-0.1-15.2-0.1-22.8,0c-15.2,0.3-30.3,0.8-45.5,1.3c-3.5,0.1-6.5,3.2-7.6,6.5
		c-2.9,8.9-0.5,18.6-5.2,27.4c-2,3.6-1.7,8.4-2.3,12.8c-1,8.2-1.8,16.3-2.7,24.5c-0.9,7.7-1.9,15.3-2.7,23
		c-0.6,5.6-0.7,11.3-1.3,16.9c-0.6,5.7-1.7,11.3-2.5,17c-0.4,3.1-0.8,6.2-0.8,9.3c0.1,5.7,0.5,11.5,0.8,17.2c0,0.3-0.5,0.5-0.6,0.8
		c-0.4,1.3-1.1,2.6-1.2,3.9c-0.2,2.6,0,5.2-0.2,7.8c-0.8,10.9-1.7,21.8-2.4,32.7c-0.4,6.7-0.4,13.4-0.4,20.1c0,0.9,0.9,1.8,1.6,3
		c-0.7,2.6-2,5.9-2.2,9.1c-0.2,5.7,0.4,11.4,0.6,17c0.5,9,0.9,17.9,1.4,27.7c13,0.5,26.1,1.1,39.2,1.5c4.8,0.1,9.7-0.4,14.5-0.1
		c17.1,1,34.2,2.5,51.3,3.4c3.3,0.2,6.6-1.6,10-2.1c4.2-0.6,8.4-0.9,12.7-1.3c0.4,0,0.7,0.5,1.2,0.6c1.5,0.4,3,1.2,4.5,1.2
		c4.7-0.1,9.5-0.4,14.2-0.7c0.8-0.1,1.6-0.5,2.3-0.8c0-0.1-0.1-0.2-0.1-0.3c-0.1,0-0.3,0-0.4,0c-0.5,0-1-0.1-1.5-0.2
		c-0.3,0-0.6,0.1-0.9,0.1c-6.4,0-6.4-10,0-10c0.2,0,0.3,0,0.4,0c0.4-0.1,0.8-0.2,1.3-0.2c0.6,0,1.2,0.1,1.7,0.3c0.1,0,0.2,0,0.3,0
		c0.2,0,0.4,0,0.6,0.1c0.4-0.1,0.9-0.2,1.4-0.2c0.2,0,0.3,0,0.5,0c0.2,0,0.4,0,0.7,0c6.1,0,6.4,9.1,0.9,9.9c0.1,0,0.2,0.1,0.2,0.1
		c2.7,1.6,7.1,0.4,10.8,0.4c1.3-4.9,5.2-1.6,7.8-2.4c1.3-0.4,3,0.3,4.4,0.3c12.4-0.3,24.9-0.9,37.3-0.8c8.8,0.1,17.4-1.3,26.1-2.5
		c11-1.5,22-1.5,33.1-0.5c7.5,0.7,15.1,0.4,22.6-0.2c10.1-0.8,20.1-2.7,30.2-3.5c3.3-0.3,6-0.3,6.9-3.1c-4.2-1.9-3.5-9.6,2.1-9.6
		c6,0,6.4,8.7,1.2,9.9c0.1,0.3,0.2,0.6,0.3,0.7c0.6,0.2,1.4-0.2,2.1-0.3c3.2-0.2,6.3-0.4,9.5-0.5v4.2c4.1-0.6,8.2,1.3,11.8-1.8
		c0.3-0.3,1.2,0.2,1.8,0.2c3.1,0.3,6.3,0.9,9.4,0.9c2.2,0,4.5-1,6.6-1.2C550.5,445.6,550,444.5,550,443z M406.9,250.7
		c-0.4-5.3,0.5-11.2,3.2-16.5c1.8-3.5,2.1-7.7,3.9-11.3c1.5-3,3.9-5.7,6.2-8.2c5.7-6.3,13.1-8.5,22.3-9c3.2,0.3,7.5,0.2,11.5,1.2
		c2.5,0.7,4.9,2.8,6.6,4.9c2.1,2.6,3.5,5.7,5,8.7c0.8,1.5,1.4,3.2,1.8,4.8c1.7,7.8,4.1,15.7,4.5,23.6c0.3,7.2-1.9,14.4-2.6,21.6
		c-0.8,8.9-6.8,14.2-12.4,20c-3.5,3.6-7.3,3.1-11.4,3c-1.3,0-2.6,0.7-3.9,0.9c-1.4,0.2-3.3,0.6-4.3,0c-2.7-1.8-5.4-1.6-8.2-1.1
		c-3.3,0.7-6-0.3-8.4-2.8c-1.3-1.4-3.8-1.7-5-3.2c-3.9-4.7-6.8-10-7.1-16.3c0-0.6,0.2-1.4-0.1-1.9
		C405.5,263.2,407.3,256.8,406.9,250.7z M377,260c6.4,0,6.4,10,0,10S370.6,260,377,260z M319.3,233.8c1.3,13-1.4,25.3-4.9,38.5
		c-0.6-1.6-1-2.5-1.7-4.3c-1,3.3-1.9,5.5-2.3,7.9c-0.5,3-2.4,3.4-4.5,2.4c-3.8-1.8-7.4-1.6-11.9,0.2c0.5-1.3,0.8-2,1-2.6
		c-0.2-0.3-0.5-0.5-0.7-0.8c-1.3,1.2-2.6,2.4-3.9,3.6c-1.3,1.2-2.5,2.4-4.3,4.1c1.7-0.4,3.1-0.9,4.5-0.9c1.6-0.1,3.6-3.4,5,0.4
		c0,0.1,1.1-0.2,1.7-0.4c1.3-0.4,2.5-0.9,4.1-1.4c1.1,4.9-5.7,1.6-5.1,5.7c1.3-0.3,2.8-0.7,4.2-1c0.1,0.2,0.3,0.4,0.4,0.7
		c-1.4,1-2.7,2.2-4.3,2.9c-3.4,1.4-6.9,2.6-10.4,3.7c-0.7,0.2-1.6-0.5-2.5-0.5c-3.1-0.3-6.1-0.9-9.2-0.8c-5.1,0.1-8.9-1.9-12.1-5.6
		c-5.6-6.3-7.3-13.9-9.3-21.8c-2.2-8.5,0.9-16.2,2.1-24.1c0.6-4.1,3.9-7.9,6.5-11.5c3.3-4.6,6.6-9.4,10.8-13.1
		c5.9-5.1,13.5-6.8,21.2-6.6c4.1,0.1,8.6,0.8,12.1,2.6C314.7,215.9,318.3,224.1,319.3,233.8z M249.1,178.4c4.1,1.1,8.3-0.6,12.4-0.3
		c2.1,0.1,4.1,0.6,6.2,1.1c1.2-1.1,2.9-1.6,4.7-1.2c3.4,0.8,7-0.2,10.4,0.1c3.6,0.2,6.4,0.5,9.9-0.3c6.3-1.4,9,8.3,2.7,9.6
		c-4.1,0.9-8,1.4-12.2,0.8c-2.4-0.4-4.8-0.2-7.2-0.1c-0.9,1.1-2.2,1.8-3.8,1.8c-4.1,0-8.2-2-12.3-1.8c-4.7,0.3-8.9,1.3-13.6,0.1
		C240.2,186.4,242.8,176.8,249.1,178.4z M517.3,362.6c-5.1-3.4-10.2-6.9-15.5-9.9c-1.7-1-4.2-0.6-6.3-0.8c0,0.1-0.1,0.3-0.2,0.5
		c-0.5,0-1.1,0-1.6,0l0.1,0.1c-1-0.8-2-1.6-3-2.4l0.1,0.1c-0.5,0.6-0.9,1.6-1.4,1.7c-6.2,0.7-10.3,5.4-15.4,8
		c-2.6,1.3-5.2,2.6-7.9,3.5c-8.7,3-17.5,5.6-26.1,8.6c-8,2.9-15.9,6.2-23.9,9.4c-2.4,1-5,1.7-7.4,2.7c-1.2,0.5-2.1,1.7-3.2,2.3
		c-1,0.6-2.2,1.2-3.3,1.3c-8,0.8-15.9,1.4-23.9,2.3c-5.5,0.6-11,2.3-16.4,1.9c-10.6-0.8-21.5,0.9-31.8-3.2c-2.1-0.8-4.8-1-7-0.4
		c-5,1.2-9.2-1.1-13.7-2.3c-3.5-0.9-7.2-3.1-10.4-2.5c-8.1,1.5-14.6-2.2-21.4-4.9c-6.9-2.7-13.7-6-20.2-9.6
		c-7-3.9-13.7-8.3-20.3-12.9c-4.9-3.5-9.5-7.4-13.9-11.5c-2.5-2.4-3.8-1.5-5.7,0.4c-3.3,3.3-6.7,6.6-10.4,9.4
		c-1.5,1.1-4,0.9-5.9,1.3c-0.3-1.8-0.5-3.1-0.6-3.9c2.4-1.6,4.8-3.1,7.1-4.6c1.2-0.8,2.4-2,3.8-2.3c4.8-1.1,6.6-5.1,9-8.6
		c1.4-2.2,2.8-4.4,4.1-6.6c1.3-2.1,2.4-4.3,3.7-6.3c1.4-2.3,3-4.5,4.9-6.6c0.6,5-5.2,15.2-11.1,23.9c4.1,2.7,8.2,5.6,12.4,8.1
		c7.3,4.3,14.9,8.2,22.2,12.5c5.7,3.3,11.2,7,16.6,10.7c5.7,3.9,12.5,5,19,6.3c13.4,2.7,26.9,4.8,40.3,7c7.8,1.3,15.7,2.4,23.5,3.3
		c2.4,0.3,5-0.2,7.4-0.9c9.1-2.6,18.4-2.9,27.8-2.4c1.4,0.1,2.8-0.9,4.2-1.5c4.6-1.8,9.1-3.9,13.7-5.5c10.4-3.6,21-6.9,31.4-10.4
		c1.4-0.5,2.6-1.6,4-2c1-0.3,2.3,0.1,3.4-0.1c2.2-0.4,4.6-0.6,6.6-1.5c4.3-1.8,8.6-3.9,12.8-6c6.4-3.3,12.9-6.6,19.2-10.2
		c1.9-1.1,3.2-3.3,4.6-4.7c-3.6-4.7-7.1-8.9-10.1-13.4c-2.1-3.1-3.5-6.6-5-10.1c-0.4-1,0.1-2.3,0.3-3.9c5.2,2.4,5.4,7.4,7.7,10.9
		c2.9,4.3,6,8.4,8.9,12.6c1.6,2.2,2.6,5,6.4,4.1c-0.2,0.4-0.4,0.8-0.5,1.2c1.4,0.8,2.9,1.4,4.3,2.3c1.2,0.9,4.5-0.6,3.5,3.2
		c-0.2,0.6,3.2,2.5,5.2,3.2c1.8,0.7,3.8,0.7,6.4,1.1c-1,0.9-1.5,1.4-2.2,2C520.2,357.4,519.1,359.6,517.3,362.6z M530,446
		c-0.6,0-1.1-0.1-1.6-0.3c-0.2,0.1-0.4,0.1-0.6,0.2c-0.7,0.7-1.3,1.3-1.9,1.9c-0.2-0.7-0.3-1.3-0.5-1.9c-5.2-1.2-4.8-9.9,1.2-9.9
		c0.6,0,1.2,0.1,1.7,0.3c0.5-0.2,1-0.3,1.7-0.3C536.4,436,536.4,446,530,446z M530.8,295.1c-0.5-1-0.8-2-0.8-3.1c0-2.7,2.3-5,5-5
		c1.6,0,3,0.8,3.9,2c0,0,0,0,0.1,0c6.4,0,6.4,10,0,10c-1.3,0-2.3-0.4-3-1C533.9,297.9,531.9,297,530.8,295.1z"/>
	<path fill="#FFFFFF" d="M434.1,177.7c-2.7,0.1-5.5,0.1-8.2,0c0.6,0,1.1,0.1,1.6,0.3c0.2,0,0.5,0,0.7,0c0.4,0,0.7,0,1,0.1
		c0.3-0.1,0.6-0.1,1-0.1c0.8,0,1.5,0.2,2.1,0.4l1,0.1c0.5-0.2,0.9-0.4,1.3-0.5c0.3-0.1,0.5-0.2,0.8-0.2
		C435,177.7,434.6,177.7,434.1,177.7z"/>
	<path fill="#FFFFFF" d="M291.6,171c1.3,0.6,2.3,1,3.2,1.4c0,0.3,0,0.5,0,0.8c-1.9,0-3.8,0-5.8,0c-12.5-0.2-25-0.3-37.4-0.6
		c-0.9,0-1.9-0.7-3.6-1.5c-14.1,0.7-29.6,1.5-45.7,2.3c0.4-1.6,0.3-3.1,1-3.7c5-4.8,9.9-9.7,15.2-14.2c10.1-8.7,20.5-17.1,30.5-25.8
		c9.5-8.2,18.5-16.8,28.1-24.9c8.3-7,17-13.5,25.6-20.1c0.8-0.6,2-1.1,3.1-1.1c14.3-0.6,28.7-1.1,43-1.6c10.5-0.4,20.9-0.9,31.4-0.9
		c6.8,0,13.6,1.1,20.4,1.3c8.1,0.3,16.2,0.1,24.3,0.4c8.8,0.4,17.6,1.3,26.5,1.7c9.7,0.4,19.5,0.3,29.2,0.6c5,0.1,10,0.5,15,0.6
		c1.2,0,2.4-0.9,3.5-1.9c44.4,0.7,88.4,7.7,132.6,11.7c0.1,0.4,0.1,0.9,0.2,1.3c-4.5,2.7-9.2,5.3-13.6,8.2c-3.5,2.3-8.3,4.3-9.8,7.6
		c-1.8,3.9-5,5.5-7.4,8.1c-3.8,4.1-8.3,7.4-12.3,11.2c-5.1,4.8-10.2,9.6-14.8,14.8c-1.9,2.1-2.6,5.4-4.2,7.9c-1.1,1.8-2.6,3.2-4,4.8
		c-3.7,4.3-7.3,8.7-11.1,12.9c-0.9,1-2.5,1.8-3.7,1.8c-12-0.5-23.9-1.3-35.8-2c-0.4,0-0.9-0.1-1.3-0.7c4.4,0,8.7,0,13.1,0
		c0-0.5,0-1,0-1.4c-24.9,0-49.8,0-74.8,0c0,0.1-0.1,0.2-0.1,0.3c1.1,0.3,2.1,0.5,3.2,0.8c-12.2-3.1-24.3,0.4-36.4-0.1
		c0,0.3,0,0.7,0,1c6.2-0.3,12.3-0.6,18.5-0.8c0,0.4,0,0.7,0,1.1c-9,0.4-18,0.8-27.1,1.2c0-0.2-0.1-0.5-0.1-0.7c2-0.3,4-0.5,6-0.8
		c0-0.3-0.1-0.6-0.1-0.8c-4.7,0.5-9.3,1.1-14,1.5c-3.6,0.3-7.3,0.6-11,0.6c-12.5,0.1-25-0.9-37.4,0.4c-14.5,1.4-28.8-0.4-43.2-0.8
		C304.2,172.8,298.2,171.7,291.6,171z M371.6,125.9c0,0.5,0,1,0,1.6c6.7,1,13.3,2.6,20,3c12.8,0.8,25.5,1,38.3,1.3
		c8.7,0.2,17.4,0.4,26.1,0.3c5.8-0.1,11.6-0.8,17.4-1.6c2-0.3,3.8-1.4,6.1-2.3c-0.7-0.9-1.1-1.5-1.6-2c-4.3-4.4-6.4-7-11.7-7.6
		c-9-1-21.7,1.5-30.8,0.5c-5.4-0.6-10.9-1.7-16.3-1.5c-11.7,0.4-23.3,1.5-35,2.4C379,120.3,375.1,122.6,371.6,125.9z"/>
	<path fill="#FFFFFF" d="M643.1,364.9c-0.9-0.5-1.4-1-1.6-1.4c-0.8,0.9-2,1.5-3.6,1.5c-6.4,0-6.4-10,0-10c3.8,0,5.4,3.5,4.7,6.4
		c1,0.6,1.8,1,2.4,1.3c-0.2-2.9-0.3-5.4-0.5-8.3c-0.4-0.2-1.6-0.5-1.9-1.3c-0.5-1.1-0.8-2.6-0.6-3.9c0.4-1.9,1.9-3.8,1.8-5.7
		c-0.4-9.5-1-18.9-1.7-28.3c-0.6-7.8-1.7-15.6-2.1-23.4c-0.4-6.8,0-13.7-0.1-20.5c-0.1-6.4-0.8-12.9-0.8-19.3
		c-0.2-11.7-0.1-23.5-0.1-35.2c0-6.1,0.3-12.2,0.3-18.2c0-3.5,0.6-7.9-1.2-10.2c-2.4-3-1.8-5.8-1.8-8.7c-0.1-12.1,0.3-24.2,0.4-36.3
		c0-0.7-0.2-1.5-0.2-2.2c-0.6-7.2-1.3-14.4-1.8-21.6c-0.1-0.9,0.5-1.9,0.6-2.9c0.8-6.3,0.5-12.5-1.2-19.4
		c-8.3,6.7-16.2,12.7-23.7,19.2c-12.3,10.6-24,21.9-33.9,34.7c-4.9,6.4-9.4,13.1-14.2,19.6c-0.4,0.6-1.4,0.9-2.1,1.3
		c-2.7,1.5-4.6,6-4,9.1c0.7,3.6,1.7,7.2,1.9,10.8c0.3,6.2-0.1,12.4-0.1,18.6c0,6-0.9,12.2,0.5,17.8c1.4,5.5-2.6,11.5,2,16.4
		c0.1,0.1,0,0.2,0,0.4c-0.5,5.1-1.5,10.2-1.5,15.2c0.1,5-2.7,10.4,1.4,15.1c0.2,0.3,0,0.9,0,1.4c-0.3,4.3-0.9,8.6-0.9,12.8
		c0,4.1,1,8.2,1.1,12.3c0.2,6.5-0.1,13.1,0.1,19.6c0.2,7,0.7,14,1.1,21.2c0.4,0.2,1.2,0.5,1.3,0.6c0,7.6-0.2,14.7,0.1,21.8
		c0.1,1.5,0.5,2.8,1.1,3.8c0.7-1.5,2.1-2.6,4.3-2.6c0.8,0,1.4,0.1,2,0.4c0.9,0.1,1.7,0.4,2.3,0.9c0.8-0.6,1.8-1,3-1
		c6.4,0,6.4,10,0,10c-1,0-1.8-0.2-2.4-0.6c-0.6,1.8-2.1,3.3-4.6,3.3c-2.8,0-4.4-2-4.8-4.1c-0.4,0.2-0.8,0.5-0.8,0.7
		c0.1,6.5,0.4,13,0.8,19.4c0,0.1,0.2,0.3,0.5,0.5c0.2-1,0.7-1.8,1.4-2.4c0-2.5,1.6-5.1,4.8-5.1c3.7,0,5.2,3.2,4.7,6
		c2.2,2.2,1.8,6.6-1.1,8.1c0.1,2.3,0.2,4.6,0.2,6.9c0.1,2.9,0.5,5.7,0.5,8.6c0,0.3,0.1,4.8-0.5,3.7c1.4,2.9-0.1,5.7-2.3,6.9
		c0.6,0.2,1.2,0.4,1.6,0.7c0,0,0.1-0.1,0.1-0.1c0,0,0.1,0,0.1-0.1c0.1-0.1,0.1-0.1,0.2-0.2c0.3-0.2,0.5-0.4,0.8-0.6
		c0.3-0.4,0.6-0.7,1-0.9c0.4-1.7,1.5-3.1,3.5-3.5c0.3-0.3,0.6-0.6,1-0.9c0.3-0.6,0.8-1.2,1.4-1.6c0.4-1,1.1-1.8,2.1-2.3
		c0.4-0.7,1-1.3,1.8-1.7c0.4-1.5,1.5-2.7,3.2-3.2c0.5-1,1.4-1.9,2.6-2.3c0.6-1.1,1.6-2,2.8-2.5c0.5-0.7,1.2-1.3,2.1-1.6
		c0.1-0.1,0.2-0.2,0.3-0.3l0.4-0.4c0.4-0.4,0.8-0.7,1.3-0.9c0.5-0.7,1.2-1.2,1.9-1.6c0.3-0.5,0.7-1,1.2-1.3c0.3-0.5,0.7-0.9,1.2-1.2
		c0.5-0.9,1.4-1.6,2.5-2c0.1-0.2,0.3-0.4,0.4-0.6c0.5-0.8,1.3-1.5,2.3-1.8c0.2-0.1,0.3-0.2,0.5-0.3c0.3-0.4,0.7-0.8,1.2-1.1
		c0.4-0.4,0.9-0.8,1.5-1c0.3-0.3,0.7-0.6,1.1-0.8c0.8-1.3,2.1-2.2,4.1-2.2c0.1,0,0.2,0,0.3,0c0.3-0.1,0.6-0.2,0.9-0.2
		c0.4-0.7,1.1-1.4,1.9-1.8c0.2-0.3,0.5-0.5,0.7-0.7c0.3-0.7,0.8-1.4,1.4-1.9c0.5-0.7,1.2-1.2,2.2-1.5c0.3-0.2,0.6-0.4,1-0.5
		c0.2-0.2,0.4-0.3,0.6-0.5c0.4-0.6,1-1.1,1.8-1.5c0.4-0.5,0.8-0.9,1.4-1.2c0.3-0.5,0.8-0.9,1.3-1.2c0.3-0.3,0.7-0.5,1.1-0.7
		c0.2-0.2,0.5-0.3,0.8-0.5c0.6-0.5,1.4-0.9,2.3-1.1c0.2-0.1,0.4-0.3,0.6-0.4c0.5-0.7,1.1-1.3,2-1.6c-1.4-3,0-7.4,4.3-7.4
		c1.3,0,2.4,0.4,3.2,1.1C645.6,369,645.3,366,643.1,364.9z"/>
	<path fill="#FFFFFF" d="M566.3,427c-0.2-0.5-0.4-1-0.5-1.4c0,2.3,0.2,4.5,0.9,6.7c0.3-1.2,1-2.3,2.1-2.9
		C567.8,429,566.9,428.2,566.3,427z"/>
	<path fill="#FFFFFF" d="M646.1,382.3c0.4-0.2,0.8-0.3,1.2-0.5c-0.1-2-0.3-4.5-0.5-7c-0.3,0-0.7,0-1-0.1c0,0.8-0.1,1.5-0.4,2.2
		C646.6,378.4,646.8,380.6,646.1,382.3z"/>
	<path fill="#FFFFFF" d="M622.8,400.1c-0.5,0.9-1.4,1.6-2.5,2c0,0,0.1,0.1,0.1,0.1c1.4-0.8,2.8-1.7,3.8-2.7
		C623.8,399.8,623.3,400,622.8,400.1z"/>
	<path fill="#FFFFFF" d="M572.3,443c-1.8,0-3.1-0.8-3.9-2c-0.6,0.7-0.7,2.4-0.6,5.4c1.5-0.9,2.8-1.4,3.8-2.2c0.5-0.4,1-0.8,1.5-1.3
		C572.8,443,572.6,443,572.3,443z"/>
	<path fill="#FFFFFF" d="M371.2,176.2c-3.8,0-7.7,0-11.5,0c0-0.2,0-0.5,0-0.7c3.8,0,7.6,0,11.4,0
		C371.2,175.7,371.2,175.9,371.2,176.2z"/>
	<path d="M442.5,205.7c3.2,0.3,7.5,0.2,11.5,1.2c2.5,0.7,4.9,2.8,6.6,4.9c2.1,2.6,3.5,5.7,5,8.7c0.8,1.5,1.4,3.2,1.8,4.8
		c1.7,7.8,4.1,15.7,4.5,23.6c0.3,7.2-1.9,14.4-2.6,21.6c-0.8,8.9-6.8,14.2-12.4,20c-3.5,3.6-7.3,3.1-11.4,3c-1.3,0-2.6,0.7-3.9,0.9
		c-1.4,0.2-3.3,0.6-4.3,0c-2.7-1.8-5.4-1.6-8.2-1.1c-3.3,0.7-6-0.3-8.4-2.8c-1.3-1.4-3.8-1.7-5-3.2c-3.9-4.7-6.8-10-7.1-16.3
		c0-0.6,0.2-1.4-0.1-1.9c-2.9-5.9-1.1-12.3-1.6-18.4c-0.4-5.3,0.5-11.2,3.2-16.5c1.8-3.5,2.1-7.7,3.9-11.3c1.5-3,3.9-5.7,6.2-8.2
		C425.9,208.5,433.3,206.2,442.5,205.7z M468.8,249.7c0.2-0.8,0.4-1.2,0.4-1.5c-1-11.1-3.1-21.9-9.3-31.5c-1.6-2.5-3.9-6-6.3-6.4
		c-6.8-1.2-13.9-2.3-20.8,0.8c-2.5,1.1-6.1,0.6-7.9,2.2c-3.2,3-6.3,6.7-7.8,10.7c-3.2,9-6.8,18-6.6,28c0.1,4.2,1.2,3.7,3.9,2.9
		c6.4-1.9,13-3.2,19.2-5.7c8.6-3.4,17.1-3.2,25.9-1.2C462.5,248.7,465.6,249.1,468.8,249.7z M457.5,273.4c-0.3-0.2-0.6-0.5-0.8-0.7
		c-2.8,3.1-5.6,6.1-8.5,9.2c0.3,0.3,0.7,0.6,1,0.9C452,279.7,454.7,276.6,457.5,273.4z M468.1,257.4c-0.1,0-0.2,0-0.2,0
		c-0.4,3-0.8,5.9-1.2,8.9c0.5,0,1,0.1,1.5,0.1C468.1,263.4,468.1,260.4,468.1,257.4z"/>
	<path d="M319.3,233.8c-1-9.8-4.6-18-13.5-22.6c-3.6-1.8-8-2.5-12.1-2.6c-7.7-0.3-15.3,1.4-21.2,6.6c-4.2,3.7-7.5,8.5-10.8,13.1
		c-2.6,3.6-5.9,7.4-6.5,11.5c-1.2,7.9-4.3,15.6-2.1,24.1c2,7.8,3.8,15.5,9.3,21.8c3.3,3.7,7.1,5.7,12.1,5.6c3-0.1,6.1,0.5,9.2,0.8
		c0.8,0.1,1.8,0.8,2.5,0.5c3.5-1.1,7-2.3,10.4-3.7c1.6-0.7,2.9-1.9,4.3-2.9c-0.1-0.2-0.3-0.4-0.4-0.7c-1.4,0.3-2.9,0.7-4.2,1
		c-0.6-4.1,6.2-0.8,5.1-5.7c-1.5,0.5-2.8,1-4.1,1.4c-0.6,0.2-1.7,0.5-1.7,0.4c-1.4-3.8-3.4-0.5-5-0.4c-1.4,0.1-2.8,0.5-4.5,0.9
		c1.8-1.7,3-2.9,4.3-4.1c1.3-1.2,2.6-2.4,3.9-3.6c0.2,0.3,0.5,0.5,0.7,0.8c-0.3,0.7-0.5,1.3-1,2.6c4.5-1.8,8.1-2,11.9-0.2
		c2.1,1,4,0.7,4.5-2.4c0.4-2.4,1.3-4.7,2.3-7.9c0.7,1.8,1.1,2.7,1.7,4.3C317.9,259.1,320.6,246.8,319.3,233.8z M292.7,286.6
		c0.1,0.4,0.2,0.8,0.2,1.2c-1.9,2.5-4.2,1.4-6.6-0.4C288.5,287.2,290.6,286.9,292.7,286.6z M268.6,287.1c-1.1-0.9-2.1-1.8-3.2-2.7
		c1.1-0.9,2.3-1.8,3.4-2.7c0.5,0.3,1,0.6,1.5,1C269.6,284.2,269.1,285.6,268.6,287.1z M275.4,272.2c-0.2-0.5-0.3-0.9-0.5-1.4
		c1.4-0.6,2.8-1.2,4.2-1.8c2-0.9,3.9-1.9,5.9-2.5c1.3-0.4,2.9-0.2,4.3-0.3c0,0.6,0,1.1,0,1.7C284.7,269.4,280,270.8,275.4,272.2z
		 M301.1,265.3c3.9-0.5,2.8-7.4,8.4-5.7c-2.5,2.3-5,4.6-7.5,6.9C301.7,266.1,301.4,265.7,301.1,265.3z M306.9,276.4
		c-0.1,0.4-0.6,0.6-1,0.9l-1-0.5c1.4-3.1,2.8-6.2,4.3-9.3c0.7-1.5,1.4-2.9,2.2-4.3c1.2-2.1,0.2-3.1-1.7-3.6c1.7-1.3,3.4-2.5,5.1-3.8
		C312.2,262.7,309.6,269.6,306.9,276.4z M315.6,254.2c0,0.4-0.4,0.9-0.7,1.4c-1.3-2-2.6-3.3-5.6-2.5c-1.8,0.5-4-0.6-6.1-1
		c-2.3-0.5-4.6-1-6.9-1.5c-0.2,0-0.5,0.1-0.8,0.1c-0.4,0.1-0.8,0.1-1.3,0.1c-0.3,0-0.5,0-0.8-0.1c0,0.1,0,0.2-0.1,0.3
		c-3.1-0.8-6.1-1.6-9.2-2.4c-0.9,1-1.7,2.3-2.8,2.8c-1.5,0.7-3.3,0.9-5.1,1.1c-0.9,0.1-1.8-0.2-2.7-0.3c0.2-0.6,0.3-1.3,0.5-1.9
		c-1,0.5-1.9,1.2-3,1.5c-5.8,1.3-9.6,5.2-13.7,9.8c-0.3-1.2-1-2.3-0.9-3.4c0.8-6.7,1-13.6,2.9-20.1c2.6-9.1,8.7-16.1,16.1-21.8
		c8-6.2,22.1-7.5,29.9-2.9c7,4.1,10.7,10.5,10.9,18.4c0.1,6.6-0.9,13.2-1.4,19.9C315,252.4,315.6,253.3,315.6,254.2z"/>
	<path d="M490.9,350.3c-0.5,0.6-0.9,1.6-1.4,1.7c-6.2,0.7-10.3,5.4-15.4,8c-2.6,1.3-5.2,2.6-7.9,3.5c-8.7,3-17.5,5.6-26.1,8.6
		c-8,2.9-15.9,6.2-23.9,9.4c-2.4,1-5,1.7-7.4,2.7c-1.2,0.5-2.1,1.7-3.2,2.3c-1,0.6-2.2,1.2-3.3,1.3c-8,0.8-15.9,1.4-23.9,2.3
		c-5.5,0.6-11,2.3-16.4,1.9c-10.6-0.8-21.5,0.9-31.8-3.2c-2.1-0.8-4.8-1-7-0.4c-5,1.2-9.2-1.1-13.7-2.3c-3.5-0.9-7.2-3.1-10.4-2.5
		c-8.1,1.5-14.6-2.2-21.4-4.9c-6.9-2.7-13.7-6-20.2-9.6c-7-3.9-13.7-8.3-20.3-12.9c-4.9-3.5-9.5-7.4-13.9-11.5
		c-2.5-2.4-3.8-1.5-5.7,0.4c-3.3,3.3-6.7,6.6-10.4,9.4c-1.5,1.1-4,0.9-5.9,1.3c-0.3-1.8-0.5-3.1-0.6-3.9c2.4-1.6,4.8-3.1,7.1-4.6
		c1.2-0.8,2.4-2,3.8-2.3c4.8-1.1,6.6-5.1,9-8.6c1.4-2.2,2.8-4.4,4.1-6.6c1.3-2.1,2.4-4.3,3.7-6.3c1.4-2.3,3-4.5,4.9-6.6
		c0.6,5-5.2,15.2-11.1,23.9c4.1,2.7,8.2,5.6,12.4,8.1c7.3,4.3,14.9,8.2,22.2,12.5c5.7,3.3,11.2,7,16.6,10.7c5.7,3.9,12.5,5,19,6.3
		c13.4,2.7,26.9,4.8,40.3,7c7.8,1.3,15.7,2.4,23.5,3.3c2.4,0.3,5-0.2,7.4-0.9c9.1-2.6,18.4-2.9,27.8-2.4c1.4,0.1,2.8-0.9,4.2-1.5
		c4.6-1.8,9.1-3.9,13.7-5.5c10.4-3.6,21-6.9,31.4-10.4c1.4-0.5,2.6-1.6,4-2c1-0.3,2.3,0.1,3.4-0.1c2.2-0.4,4.6-0.6,6.6-1.5
		c4.3-1.8,8.6-3.9,12.8-6c6.4-3.3,12.9-6.6,19.2-10.2c1.9-1.1,3.2-3.3,4.6-4.7c-3.6-4.7-7.1-8.9-10.1-13.4c-2.1-3.1-3.5-6.6-5-10.1
		c-0.4-1,0.1-2.3,0.3-3.9c5.2,2.4,5.4,7.4,7.7,10.9c2.9,4.3,6,8.4,8.9,12.6c1.6,2.2,2.6,5,6.4,4.1c-0.2,0.4-0.4,0.8-0.5,1.2
		c1.4,0.8,2.9,1.4,4.3,2.3c1.2,0.9,4.5-0.6,3.5,3.2c-0.2,0.6,3.2,2.5,5.2,3.2c1.8,0.7,3.8,0.7,6.4,1.1c-1,0.9-1.5,1.4-2.2,2
		c4.2,0.6,3.1,2.9,1.3,5.9c-5.1-3.4-10.2-6.9-15.5-9.9c-1.7-1-4.2-0.6-6.3-0.8c-0.6-0.6-1.2-1.2-1.8-1.8l0.1,0.1c-0.4,0-0.9,0-1.3,0
		l0.2,0.1c-0.3,0-0.6,0-0.9,0l0.2-0.1C491.7,350.1,491.3,350.2,490.9,350.3z"/>
	<path d="M493.9,350.1c0,0-0.1-0.1-0.1-0.1c0.2,0.5,0.3,1,0.5,1.5c-0.1,0.3-0.3,0.6-0.4,0.9c-1-0.8-2-1.6-2.9-2.3
		c0.4,0,0.8-0.1,1.1-0.1l-0.2,0.1c0.3,0,0.6,0,0.9,0c0,0-0.2-0.1-0.2-0.1C493,350.1,493.5,350.1,493.9,350.1z"/>
	<path fill="#FFFFFF" d="M494.3,351.6c-0.2-0.5-0.3-1-0.5-1.5c0.6,0.6,1.2,1.2,1.8,1.8c0,0.1-0.1,0.3-0.2,0.5
		c-0.4-0.3-0.8-0.6-1.2-0.8L494.3,351.6z"/>
	<path fill="#FFFFFF" d="M493.9,352.5c0.1-0.3,0.3-0.6,0.4-0.9l-0.1,0c-0.1,0.3-0.3,0.6-0.4,0.9L493.9,352.5z"/>
	<path d="M493.8,352.4c0.1-0.3,0.3-0.6,0.4-0.9c0.4,0.3,0.8,0.6,1.2,0.8C494.9,352.4,494.3,352.4,493.8,352.4z"/>
	<path fill="#FFFFFF" d="M492,350.1c-0.4,0-0.8,0.1-1.1,0.1c0,0,0,0.1,0,0.1C491.3,350.2,491.7,350.1,492,350.1z"/>
	<path d="M334.1,123.7c6.1-4.5,13.2-7.7,21.9-8.2c20.6-1.1,41.3-2.6,62-3.2c9.6-0.3,19.3,1.3,28.9,2c16,1.3,32,2.6,47.9,3.9
		c9.5,0.8,19.6-0.3,27.3,5.7c0.9,0.7,1.6,1.5,2.9,2.7c-3.9,1.2-7.2,2.8-10.7,3.1c-10.2,1-20.5,2-30.8,2.1
		c-15.4,0.3-30.8-0.1-46.3-0.3c-22.6-0.4-45.3-0.7-67.9-1.7c-11.9-0.6-23.6-2.7-35.4-4.1C334.1,125.1,334.1,124.4,334.1,123.7z
		 M516.2,125.6c0-0.4-0.1-0.8-0.1-1.2c-1.6-0.3-3.2-0.8-4.8-0.9c-12.3-0.8-24.6-1.5-36.8-2.4c-16.5-1.2-32.3-5.9-49.6-4.5
		c-18.5,1.5-37.4,0-56.1,0.5c-7.6,0.2-15.1,2.1-22.5,3.4c-1.2,0.2-2.1,1.4-3.1,2.1c1.2,0.8,2.3,1.8,3.6,2.2c1.6,0.5,3.4,0.6,5.2,0.7
		c7.5,0.1,15.1-0.5,22.4,0.3c12.5,1.4,25,2,37.7,1.9c18.8-0.1,37.6-0.6,56.2,0.9c13.8,1.1,30.1-7.9,40.4-1.2
		C509.1,127.8,511.1,127.1,516.2,125.6z"/>
	<path fill="#FFFFFF" d="M468.8,249.7c-3.3-0.6-6.3-1-9.3-1.7c-8.7-2-17.2-2.3-25.9,1.2c-6.2,2.5-12.8,3.8-19.2,5.7
		c-2.7,0.8-3.8,1.3-3.9-2.9c-0.3-10,3.3-19,6.6-28c1.4-4,4.6-7.7,7.8-10.7c1.8-1.6,5.4-1.1,7.9-2.2c6.9-3.1,14-1.9,20.8-0.8
		c2.4,0.4,4.7,3.9,6.3,6.4c6.2,9.5,8.3,20.4,9.3,31.5C469.3,248.5,469.1,248.9,468.8,249.7z"/>
	<path fill="#FFFFFF" d="M457.5,273.4c-2.7,3.1-5.5,6.3-8.2,9.4c-0.3-0.3-0.7-0.6-1-0.9c2.8-3.1,5.6-6.1,8.5-9.2
		C456.9,273,457.2,273.2,457.5,273.4z"/>
	<path fill="#FFFFFF" d="M468.1,257.4c0,3,0,6,0,9c-0.5,0-1-0.1-1.5-0.1c0.4-3,0.8-5.9,1.2-8.9C467.9,257.4,468,257.4,468.1,257.4z"
		/>
	<path fill="#FFFFFF" d="M316.5,231.7c-0.2-7.9-3.9-14.2-10.9-18.4c-7.9-4.6-21.9-3.3-29.9,2.9c-7.4,5.8-13.6,12.7-16.1,21.8
		c-1.8,6.5-2.1,13.4-2.9,20.1c-0.1,1,0.6,2.2,0.9,3.4c4-4.6,7.9-8.5,13.7-9.8c1.1-0.2,2-1,3-1.5c3.4-0.6,6.8-1.1,10.1-1.7
		c3,0.8,6.1,1.6,9.2,2.4c0-0.1,0-0.2,0.1-0.3c-2.1-0.3-3.3-1.7-3.8-3.4c-0.8,0.8-1.9,1.3-3.4,1.3c-0.1,0-0.2,0-0.4,0
		c-0.1,0-0.2,0-0.3,0c-0.2,0-0.3,0-0.5,0c-0.1,0-0.2,0-0.3,0c-6.4,0-6.4-10,0-10c0.1,0,0.2,0,0.4,0c0.1,0,0.3,0,0.4,0
		c0.1,0,0.2,0,0.2,0c0.1,0,0.3,0,0.4,0c2.4,0,3.9,1.4,4.5,3.2c0.8-0.9,2-1.5,3.5-1.5c1.1,0,1.9,0.3,2.7,0.7c4.1,1.6,3.9,8.6-0.8,9.5
		c2.3,0.5,4.6,1,6.9,1.5c2,0.4,4.3,1.5,6.1,1c3-0.8,4.3,0.6,5.6,2.5c0.2-0.5,0.7-0.9,0.7-1.4c-0.1-0.9-0.6-1.7-0.6-2.6
		C315.5,244.9,316.6,238.3,316.5,231.7z"/>
	<path fill="#FFFFFF" d="M314.9,255.6c-2.7,7-5.3,13.9-8,20.9c-0.1,0.4-0.6,0.6-1,0.9c-0.3-0.2-0.6-0.3-1-0.5
		c1.4-3.1,2.8-6.2,4.3-9.3c0.7-1.5,1.4-2.9,2.2-4.3c1.2-2.2,0.1-3.1-1.8-3.7c0,0,0,0.1,0,0.1c1.8-1.3,3.6-2.7,5.4-4
		C315.1,255.7,314.9,255.6,314.9,255.6z"/>
	<path fill="#FFFFFF" d="M289.3,267.9c-4.6,1.4-9.3,2.9-13.9,4.3c-0.2-0.5-0.3-0.9-0.5-1.4c1.4-0.6,2.8-1.2,4.2-1.8
		c2-0.9,3.9-1.9,5.9-2.5c1.3-0.4,2.9-0.2,4.3-0.3C289.3,266.8,289.3,267.4,289.3,267.9z"/>
	<path fill="#FFFFFF" d="M274.2,250.2c3.4-0.6,6.8-1.1,10.1-1.7c-0.9,1-1.7,2.3-2.8,2.8c-1.5,0.7-3.3,0.9-5.1,1.1
		c-0.9,0.1-1.8-0.2-2.7-0.3C273.9,251.5,274.1,250.9,274.2,250.2z"/>
	<path fill="#FFFFFF" d="M309.6,259.7c0,0,0-0.1,0-0.1c-2.5,2.3-5,4.6-7.5,6.9c-0.3-0.4-0.6-0.8-0.9-1.1
		C305.1,264.9,303.9,257.8,309.6,259.7z"/>
	<path fill="#FFFFFF" d="M270.2,282.7c-0.5,1.5-1.1,2.9-1.6,4.4c-1.1-0.9-2.1-1.8-3.2-2.7c1.1-0.9,2.3-1.8,3.4-2.7
		C269.2,282.1,269.7,282.4,270.2,282.7z"/>
	<path fill="#FFFFFF" d="M293,287.8c-1.9,2.5-4.2,1.4-6.6-0.4c2.1-0.3,4.2-0.5,6.3-0.8C292.8,287,292.9,287.4,293,287.8z"/>
	<path fill="#FFFFFF" d="M493.9,350.1c-0.4,0-0.9,0-1.3,0C493,350.1,493.5,350.1,493.9,350.1z"/>
	<path fill="#FFFFFF" d="M492.8,350.2c-0.3,0-0.6,0-0.9,0C492.2,350.2,492.5,350.2,492.8,350.2z"/>
	<path fill="#FFFFFF" d="M474.5,127.3c-1.4,0.5-10.3,1.1-11.7,1.3c-7.6,1.1-7.6,1.7-15.4,0.9c-10.5-1.1-21.2-0.7-31.8-0.6
		c-7.1,0.1-14.2-0.4-21.3-1.4c-4.1-0.6-8.4-0.2-12.7-0.2c-1,0-2-0.1-2.9-0.5c-0.8-0.3-1.4-1.1-2.1-1.6c0.6-0.5-6.3-1.4-5.6-1.5
		c4.2-0.9,15.9-2.3,20.1-2.5c10.6-0.4,21.2,0.7,31.7-0.4c9.8-1,18.7,2.4,28,3.3c6.9,0.7,13.9,1.1,20.8,1.7c0.9,0.1,11.4,1,12.3,1.2
		C484,127.3,474.4,127,474.5,127.3z"/>
</g>
<g>
	<g>
		<path d="M278,272c1.9,0,1.9-3,0-3S276.1,272,278,272L278,272z"/>
	</g>
</g>
<g>
	<g>
		<path d="M273.8,274.3c1.3,0.1,2.2-0.3,3.1-1.1c0.7-0.7,1.6-3.8,2.2-4c-1.8,0.6-1.1,3.2,0.8,2.9c2.7-0.5,7.6-3.4,4-6.2
			c-1-0.8-2.6-0.4-2.6,1.1c0.1,2.7,2.1,4.5,4.8,3.7c3.1-0.8,2.2-4.1,0.5-5.8c-0.6,0.8-1.2,1.6-1.8,2.4c0.7,0.3,1.2,0.8,1.6,1.4
			c0.6,0.8,1.6,0.9,2.4,0.3c0.6-0.5,0.7-0.6,1-1.3c0.8-1.8-1.8-3.3-2.6-1.5c-0.2,0.2-0.3,0.5-0.5,0.7c0.8,0.1,1.6,0.2,2.4,0.3
			c-0.8-1.1-1.6-1.9-2.7-2.5c-1.5-0.8-3,1.1-1.8,2.4c1.4,1.4-0.2,1-0.2,0c-0.9,0.4-1.7,0.7-2.6,1.1c0.3,0.2-2.4,1.2-2.7,1.2
			c0.3,1,0.5,1.9,0.8,2.9c2.1-0.7,3.8-3.8,0.7-4.7c-1.3-0.4-2.8-0.2-3.8,0.7c-0.9,0.8-1.6,3.4-2.9,3.3
			C271.8,271.2,271.8,274.2,273.8,274.3L273.8,274.3z"/>
	</g>
</g>
<g>
	<g>
		<path d="M299.7,266.6c0.3,0.3,0.5,0.6,0.8,0.9c0.4,0.5,1.3,0.6,1.8,0.2c1.2-0.9,2.7-5,3.9-4.9c-0.4-0.8-0.9-1.5-1.3-2.3
			c-0.2,0.2-0.4,0.5-0.7,0.7c0.8,0.4,1.5,0.9,2.3,1.3c0,0.4,0.7,1,1,1.3c0.6,0.7,2,0.5,2.4-0.3c0.2-0.5,0.4-0.8,0.5-1.4
			c0-0.1,0.3-2.8,0.6-1.3c0.3,1.7,3.1,1.3,2.9-0.4c0.2-0.7,0.4-1.4,0.6-2.1c-0.9-0.4-1.7-0.7-2.6-1.1c0.2,3.3-2,6.4-3,9.5
			c-0.7,2-1.1,7.2-3.5,8c-1.8,0.6-1,3.5,0.8,2.9c3.3-1.1,4.2-5.3,5-8.2c1.1-4,3.9-7.9,3.6-12.1c-0.1-1.2-1.7-2.2-2.6-1.1
			c-1.1,1.4-1.6,2.4-1.4,4.2c1-0.1,2-0.3,2.9-0.4c-0.3-1.5-1.6-4-3.6-3.4c-3.2,0.9-1.8,3-2.9,5.3c0.8-0.1,1.6-0.2,2.4-0.3
			c-2.2-2.8-5.7-3.5-6.1,0.9c-0.1,1.1,1.4,1.9,2.3,1.3c0.7-0.5,1.2-1.1,1.7-1.8c0.7-1-0.2-2.2-1.3-2.3c-3.8-0.2-3,3.6-5.4,5.4
			c0.6,0.1,1.2,0.2,1.8,0.2c-0.3-0.3-0.5-0.6-0.8-0.9C300.5,263,298.4,265.1,299.7,266.6L299.7,266.6z"/>
	</g>
</g>
<g>
	<g>
		<path d="M271.3,282c-0.9-1.3-2.2-1.8-3.7-1.4c-0.7,0.2-1,0.8-1.1,1.4c-0.1,0.9,0.2,1.7,0.7,2.4c0.5,0.6,1.2,1.2,1.5,1.7
			c0.2-0.7,0.4-1.4,0.5-2.1c-0.4,0.3-0.9,0.4-1.3,0.4c-0.1,0-0.5-0.1-0.2,0c-0.1,0-0.2,0-0.3-0.1c0.2,0.1,0.2,0.1,0,0
			c0.1,0,0.3,0.4,0.1,0.1c0.2,0.3,0.1,0.2,0.1-0.1c0.1-0.8-0.7-1.5-1.5-1.5c-0.9,0-1.4,0.7-1.5,1.5c-0.3,3.3,3.9,3.7,6,2.3
			c0.6-0.4,1-1.3,0.5-2.1c-0.4-0.6-0.8-1-1.3-1.5c-0.5-0.5-0.6-0.6-0.5-1.1c-0.4,0.5-0.7,1-1.1,1.4c0.2-0.1,0.2-0.2,0.4,0
			c0.5,0.7,1.3,1,2.1,0.5C271.4,283.7,271.8,282.7,271.3,282L271.3,282z"/>
	</g>
</g>
<g>
	<g>
		<path d="M308.8,258.4c-0.3-0.3-0.5-0.5-0.8-0.8c-0.6-0.6-1.5-0.6-2.1,0c-0.6,0.6-0.6,1.5,0,2.1c0.3,0.3,0.5,0.5,0.8,0.8
			c0.6,0.6,1.5,0.6,2.1,0C309.4,260,309.4,259,308.8,258.4L308.8,258.4z"/>
	</g>
</g>
<g>
	<g>
		<path d="M287.3,283.8c2.9-2.4,5.8-5,8.7-7.5c1.4-1.2-0.4-3-1.8-2.4c-2.6,1.2-4.7,4.7-4.8,7.6c0,0.9,1,1.8,1.9,1.4
			c2.4-0.8,5.2-0.8,6.1-3.5c0.3-0.8-0.3-1.7-1-1.8c-3.2-0.8-5.4,0-8,2c-1.2,0.9-0.6,3.4,1.2,2.7c0.9-0.4,1.6-0.6,2.4-1.1
			c1-0.6,7-3.3,3-0.6c0.6,0.8,1.2,1.6,1.8,2.4c3.9-4.7,11.4-5.6,11.7-12.7c0.1-2-2.8-1.9-3,0c-0.5,3.9-5.2,6.2-7.8,8.6
			c-3.9,3.6-5.8,8-11.9,8.3c0.3,0.9,0.5,1.9,0.8,2.8c1.3-0.7,3.7-0.5,5.3-0.7c1.4-0.3,2.7-1.4,3.8-2.2c1.6-1.1,3.3-2,4.9-3.2
			c1.8-1.3,2.7-3.6,4.7-4.8c-0.7-0.7-1.4-1.4-2.1-2.1c-2,2.6-4.5,4.6-6.4,7.2c-0.9,1.2,0.9,2.9,2.1,2.1c1.6-1.2,3.5-1.4,5-2.6
			c1.3-1,0.6-3.2-1.2-2.7c-2.2,0.6-3.3,2.1-4.9,3.6c0.7,0.7,1.4,1.4,2.1,2.1c3.8-3.7,8.7-6.8,11.9-11c1.6-2.1,4.4-5.2,4.2-8
			c-0.1-2.1-2-3.2-3.8-2.4c-2,0.9-2.7,5.2-3.1,7c-0.4,1.9,2.4,2.7,2.9,0.8c0.3-1.3,0.7-2.5,1.1-3.7c0.9-2.5-0.4-0.3-0.8,0.4
			c-0.5,0.9-1.1,1.8-1.7,2.7c-3.2,4.8-8.7,8.3-12.8,12.3c-1.4,1.4,0.7,3.4,2.1,2.1c1.1-1,2.1-2.4,3.6-2.8c-0.4-0.9-0.8-1.8-1.2-2.7
			c-1.6,1.2-3.5,1.4-5,2.6c0.7,0.7,1.4,1.4,2.1,2.1c2-2.6,4.5-4.6,6.4-7.2c0.9-1.2-0.8-2.8-2.1-2.1c-1.1,0.6-1.8,1.1-2.5,2.2
			c-1.6,2.3-3.6,3.7-6,5.1c-2.3,1.3-3.3,2.8-6.3,2.9c-1.5,0.1-2.6,0.1-4,0.8c-1.3,0.7-0.7,2.9,0.8,2.8c6-0.3,9.6-3.9,13.2-8.4
			c3.4-4.1,8.7-5.7,9.5-11.5c-1,0-2,0-3,0c-0.2,5.4-7.8,6.9-10.8,10.6c-1,1.2,0.3,3.4,1.8,2.4c1.4-0.9,4.9-3.5,2.9-5.5
			c-3.3-3.3-7.5,0.6-10.6,1.8c0.4,0.9,0.8,1.8,1.2,2.7c1.5-1.4,3.4-2,5.7-1.7c-0.3-0.6-0.7-1.2-1-1.8c-0.3,0.8-3.3,1.2-4,1.4
			c0.6,0.5,1.3,1,1.9,1.4c0.1-1.8,1.7-4.2,3.3-5c-0.6-0.8-1.2-1.6-1.8-2.4c-2.9,2.4-5.8,5.1-8.7,7.5
			C283.7,282.9,285.8,285,287.3,283.8L287.3,283.8z"/>
	</g>
</g>
<g>
	<g>
		<path d="M295.4,277.8C295.3,277.8,295.3,277.8,295.4,277.8c0.5,0-0.2-0.1,0.2,0c-0.3-0.1,0.1,0.1,0.2,0.1
			c-0.2-0.1,0.1,0.2,0.1,0.2c0.5,0.6,1.6,0.6,2.1,0c0.6-0.6,0.5-1.5,0-2.1c-0.9-1-2.2-1.3-3.5-1.1c-0.8,0.2-1.3,1.1-1,1.8
			C293.8,277.6,294.6,277.9,295.4,277.8L295.4,277.8z"/>
	</g>
</g>
<g>
	<g>
		<path d="M447.4,286.7c4.5-5.1,7.9-11.1,13.3-15.3c1.5-1.2-0.6-3.3-2.1-2.1c-5.4,4.2-8.8,10.3-13.3,15.3
			C444,286,446.1,288.2,447.4,286.7L447.4,286.7z"/>
	</g>
</g>
<g>
	<g>
		<path d="M467.8,268.6c-1.1-3.4-1.2-7.3,0-10.7c-0.7,0.3-1.5,0.6-2.2,0.9c2.3,1.3,1.4,4.4,0.7,6.4c-0.6,1.8,2.3,2.6,2.9,0.8
			c1.1-3.5,1.6-7.7-2.1-9.8c-0.9-0.5-1.9,0-2.2,0.9c-1.3,3.8-1.2,8.4,0,12.3C465.5,271.2,468.4,270.5,467.8,268.6L467.8,268.6z"/>
	</g>
</g>
<g>
	<g>
		<path d="M430.6,460.4c5,1,9.8,0.2,14.8-0.7c1.9-0.3,1.1-3.2-0.8-2.9c-4.4,0.8-8.7,1.6-13.2,0.7
			C429.5,457.2,428.7,460.1,430.6,460.4L430.6,460.4z"/>
	</g>
</g>
<g>
	<g>
		<path d="M437,459.8c1.3,0,1.6,0,2.9-0.3c1.1-0.3,1.5-1.8,0.7-2.5c-3-2.7-7-4.2-9.8-0.5c-0.6,0.7-0.6,1.8,0.3,2.4
			c3.6,2,8.7,1.4,12.6,1.1c4.2-0.3,9.2-0.7,12.9-3c1-0.6,0.9-2,0-2.6c-3.2-2.1-16-3.8-16.2,2.5c-0.2,7.5,13.7,0.7,17,0.1
			c1.1-0.2,1.5-1.8,0.7-2.5c-4.1-3.2-9-0.4-13.1,1.4c-0.9,0.4-0.9,1.7-0.3,2.4c4.7,5.2,18.1,0.7,23.2-1.9c1-0.5,1-2.1,0-2.6
			c-1.1-0.6-2.6-1.3-3.9-0.8c-1.5,0.5-3.1,2.6-4.7,1.8c-0.4,0.9-0.8,1.8-1.2,2.7c7.3,1.1,14.5-0.9,21.9,0.1c6,0.9,11.6,1.9,17.4-0.4
			c1.8-0.7,1-3.6-0.8-2.9c-6,2.4-11.7,0.8-17.9,0.1c-6.6-0.7-13.2,1.1-19.8,0.1c-1.6-0.2-2.8,1.9-1.2,2.7c1.1,0.6,2.2,1.1,3.5,0.7
			c1.8-0.5,2.7-2.8,5.1-1.6c0-0.9,0-1.7,0-2.6c-3.9,1.9-16.1,6.2-19.5,2.4c-0.1,0.8-0.2,1.6-0.3,2.4c2.4-1,7-3.8,9.5-1.8
			c0.2-0.8,0.4-1.7,0.7-2.5c-4.1,0.6-7.9,2.7-12,3.2c-1.8,0.2,0.1-1.2,0.7-1.4c1.3-0.4,2.8-0.3,4.2-0.2c1.7,0.1,4.1,0.3,5.6,1.3
			c0-0.9,0-1.7,0-2.6c-3.2,1.9-7.7,2.2-11.4,2.5c-3.2,0.3-8.1,1-11.1-0.7c0.1,0.8,0.2,1.6,0.3,2.4c2.3-1.5,4.1-1.3,5.6,0.5
			c0.2-0.8,0.4-1.7,0.7-2.5c-0.7,0.1-1.4,0.2-2.1,0.2C435.1,456.8,435.1,459.8,437,459.8L437,459.8z"/>
	</g>
</g>
<g>
	<g>
		<path d="M394.7,455.6c-1.9-0.5-3.8-1.1-5.6-1.8c-0.8-0.3-1.6-0.2-2.1,0.5c-0.4,0.6-0.2,1.7,0.5,2.1c2.1,0.9,4.2,1.6,6.4,2.2
			C395.8,458.9,396.6,456,394.7,455.6L394.7,455.6z"/>
	</g>
</g>
<g>
	<g>
		<path d="M393.7,457.5c-11.6-0.1-23.1-1-34.7,0c-1.9,0.2-1.9,3.2,0,3c11.6-1,23.1-0.1,34.7,0C395.6,460.5,395.6,457.5,393.7,457.5
			L393.7,457.5z"/>
	</g>
</g>
<g>
	<g>
		<path d="M331.3,458.2c-5.4,0.2-10.7,0.6-16,1.3c-1.9,0.3-1.1,3.2,0.8,2.9c5.1-0.7,10.1-1.1,15.2-1.2
			C333.2,461.2,333.2,458.2,331.3,458.2L331.3,458.2z"/>
	</g>
</g>
<g>
	<g>
		<path d="M369.7,458.8c-9.4-0.1-18.7-0.5-28.1-0.7c-1.9,0-1.9,3,0,3c9.4,0.2,18.7,0.6,28.1,0.7
			C371.6,461.8,371.6,458.8,369.7,458.8L369.7,458.8z"/>
	</g>
</g>
<g>
	<g>
		<path d="M273.7,253.8c0.8-0.2,1.3-0.5,2-0.9c0.6-0.4,3.6-0.7,4.2-0.7c2.4-0.3,4.2-0.7,6.6,0c1.9,0.6,2.6-2.3,0.8-2.9
			c-2.4-0.7-4.3-0.8-6.8-0.3c-1.4,0.3-3,0.7-4.4,0.7c-1.2,0-2.1,0.9-3.2,1.2C271,251.4,271.8,254.3,273.7,253.8L273.7,253.8z"/>
	</g>
</g>
<g>
	<g>
		<path d="M313.3,258c1.9,0,1.9-3,0-3S311.3,258,313.3,258L313.3,258z"/>
	</g>
</g>
<g>
	<g>
		<path d="M314.1,258.1c1.9,0,1.9-3,0-3S312.2,258.1,314.1,258.1L314.1,258.1z"/>
	</g>
</g>
<g>
	<g>
		<path d="M360.1,177.5c1.9,0,1.9-3,0-3S358.2,177.5,360.1,177.5L360.1,177.5z"/>
	</g>
</g>
<g>
	<g>
		<path d="M361.5,177.7c1.9,0,1.9-3,0-3S359.6,177.7,361.5,177.7L361.5,177.7z"/>
	</g>
</g>
<g>
	<g>
		<path d="M361.6,177.3c0.2,0.1,0.3,0.2,0.5,0.2c0.8,0.1,1.6-0.2,1.8-1c0.2-0.7-0.2-1.7-1-1.8c0.1,0,0.1,0.1,0.2,0.1
			c-0.7-0.5-1.7-0.1-2.1,0.5C360.7,176,361,176.9,361.6,177.3L361.6,177.3z"/>
	</g>
</g>
<g>
	<g>
		<path d="M364.9,177.5c0.1,0,0.2-0.1,0.3-0.1c0.8-0.2,1.3-1.1,1-1.8c-0.2-0.8-1.1-1.3-1.8-1c-0.1,0-0.2,0.1-0.3,0.1
			c-0.8,0.2-1.3,1.1-1,1.8C363.3,177.2,364.1,177.7,364.9,177.5L364.9,177.5z"/>
	</g>
</g>
<g>
	<g>
		<path d="M366.5,177.3C366.5,177.3,366.5,177.3,366.5,177.3c0.8,0.4,1.7,0.2,2.1-0.5c0.4-0.7,0.2-1.7-0.5-2.1c0,0,0,0-0.1,0
			c-0.7-0.4-1.6-0.2-2.1,0.5C365.6,175.9,365.8,177,366.5,177.3L366.5,177.3z"/>
	</g>
</g>
<g>
	<g>
		<path d="M368.5,177.4c0.2,0,0.4,0,0.6-0.1c0.8-0.3,1.3-1,1-1.8c-0.2-0.7-1.1-1.3-1.8-1c0.1,0,0.1,0,0.2,0c-0.8,0-1.5,0.7-1.5,1.5
			C367,176.8,367.7,177.4,368.5,177.4L368.5,177.4z"/>
	</g>
</g>
<g>
	<g>
		<path d="M370.4,177.3c1.9,0,1.9-3,0-3S368.5,177.3,370.4,177.3L370.4,177.3z"/>
	</g>
</g>
<g>
	<g>
		<path d="M409.9,175.2c0.1,0,0.1,0,0.2,0c0.8-0.2,1.3-1.1,1-1.8c-0.2-0.8-1.1-1.2-1.8-1c-0.1,0-0.1,0-0.2,0c-0.8,0.2-1.3,1.1-1,1.8
			C408.2,175,409.1,175.4,409.9,175.2L409.9,175.2z"/>
	</g>
</g>
<g>
	<g>
		<path d="M411.6,174.7c1.9,0,1.9-3,0-3S409.7,174.7,411.6,174.7L411.6,174.7z"/>
	</g>
</g>
<g>
	<g>
		<path d="M413.9,174.6C413.9,174.6,413.9,174.6,413.9,174.6c2,0,2-3,0.1-3c0,0-0.1,0-0.1,0C411.9,171.6,411.9,174.6,413.9,174.6
			L413.9,174.6z"/>
	</g>
</g>
<g>
	<g>
		<path d="M415.5,174.4C415.5,174.4,415.6,174.4,415.5,174.4c2,0,2-3,0.1-3c0,0-0.1,0-0.1,0C413.6,171.4,413.6,174.4,415.5,174.4
			L415.5,174.4z"/>
	</g>
</g>
<g>
	<g>
		<path d="M416.5,174.4c1.9,0,1.9-3,0-3S414.5,174.4,416.5,174.4L416.5,174.4z"/>
	</g>
</g>
<g>
	<g>
		<path d="M417.8,174.3c1.9,0,1.9-3,0-3S415.9,174.3,417.8,174.3L417.8,174.3z"/>
	</g>
</g>
<g>
	<g>
		<path d="M420,174.3c1.9,0,1.9-3,0-3S418.1,174.3,420,174.3L420,174.3z"/>
	</g>
</g>
<g>
	<g>
		<path d="M422.2,174.3c1.9,0,1.9-3,0-3S420.2,174.3,422.2,174.3L422.2,174.3z"/>
	</g>
</g>
<g>
	<g>
		<path d="M425,174.3c1.9,0,1.9-3,0-3S423,174.3,425,174.3L425,174.3z"/>
	</g>
</g>
<g>
	<g>
		<path d="M424,174.1c1.9,0,1.9-3,0-3S422.1,174.1,424,174.1L424,174.1z"/>
	</g>
</g>
<g>
	<g>
		<path d="M427.3,174.1c1.9,0,1.9-3,0-3S425.4,174.1,427.3,174.1L427.3,174.1z"/>
	</g>
</g>
<g>
	<g>
		<path d="M426.8,174.3c1.9,0,1.9-3,0-3S424.9,174.3,426.8,174.3L426.8,174.3z"/>
	</g>
</g>
<g>
	<g>
		<path d="M428.2,174C428.2,174,428.2,174,428.2,174c2,0,2-3,0-3c0,0,0,0,0,0C426.2,171,426.2,174,428.2,174L428.2,174z"/>
	</g>
</g>
<g>
	<g>
		<path d="M429.7,173.7c0,0,0.1,0,0.1,0c0.8-0.3,1.3-1,1-1.8c-0.2-0.8-1.1-1.3-1.8-1c0,0-0.1,0-0.1,0c-0.8,0.3-1.3,1-1,1.8
			C428.1,173.4,428.9,174,429.7,173.7L429.7,173.7z"/>
	</g>
</g>
<g>
	<g>
		<path d="M431.4,173.9c1.9,0,1.9-3,0-3S429.4,173.9,431.4,173.9L431.4,173.9z"/>
	</g>
</g>
<g>
	<g>
		<path d="M432.8,173.9c1.9,0,1.9-3,0-3S430.9,173.9,432.8,173.9L432.8,173.9z"/>
	</g>
</g>
<g>
	<g>
		<path d="M434.3,173.9c1.9,0,1.9-3,0-3S432.4,173.9,434.3,173.9L434.3,173.9z"/>
	</g>
</g>
<g>
	<g>
		<path d="M435.9,173.8c1.9,0,1.9-3,0-3S434,173.8,435.9,173.8L435.9,173.8z"/>
	</g>
</g>
<g>
	<g>
		<path d="M436.5,173.8c1.9,0,1.9-3,0-3S434.5,173.8,436.5,173.8L436.5,173.8z"/>
	</g>
</g>
<g>
	<g>
		<path d="M418.7,174.2c1.9,0,1.9-3,0-3S416.7,174.2,418.7,174.2L418.7,174.2z"/>
	</g>
</g>
<g>
	<g>
		<path d="M418.5,174.1c1.9,0,1.9-3,0-3S416.5,174.1,418.5,174.1L418.5,174.1z"/>
	</g>
</g>
<g>
	<g>
		<path d="M417.8,174.3c1.9,0,1.9-3,0-3S415.9,174.3,417.8,174.3L417.8,174.3z"/>
	</g>
</g>
<g>
	<g>
		<path d="M417.2,174.1c1.9,0,1.9-3,0-3S415.3,174.1,417.2,174.1L417.2,174.1z"/>
	</g>
</g>
<g>
	<g>
		<path d="M416.9,174.1c1.9,0,1.9-3,0-3S414.9,174.1,416.9,174.1L416.9,174.1z"/>
	</g>
</g>
<g>
	<g>
		<path d="M416.3,174.1c1.9,0,1.9-3,0-3S414.4,174.1,416.3,174.1L416.3,174.1z"/>
	</g>
</g>
<g>
	<g>
		<path d="M642,236.8c1.9,0,1.9-3,0-3S640.1,236.8,642,236.8L642,236.8z"/>
	</g>
</g>
<g>
	<g>
		<path d="M643.1,236.4c1.9,0,1.9-3,0-3S641.1,236.4,643.1,236.4L643.1,236.4z"/>
	</g>
</g>
<g>
	<g>
		<path d="M642.9,237.3c1.9,0,1.9-3,0-3S641,237.3,642.9,237.3L642.9,237.3z"/>
	</g>
</g>
<g>
	<g>
		<path d="M643.1,238.4c1.9,0,1.9-3,0-3S641.2,238.4,643.1,238.4L643.1,238.4z"/>
	</g>
</g>
<g>
	<g>
		<path d="M643,239.2c1.9,0,1.9-3,0-3S641.1,239.2,643,239.2L643,239.2z"/>
	</g>
</g>
<g>
	<g>
		<path d="M642.9,240c1.9,0,1.9-3,0-3S641,240,642.9,240L642.9,240z"/>
	</g>
</g>
<g>
	<g>
		<path d="M642.9,240.8c1.9,0,1.9-3,0-3S641,240.8,642.9,240.8L642.9,240.8z"/>
	</g>
</g>
<g>
	<g>
		<path d="M643.1,241.9c1.9,0,1.9-3,0-3S641.2,241.9,643.1,241.9L643.1,241.9z"/>
	</g>
</g>
<g>
	<g>
		<path d="M641.7,241.4c0,0,0,0.1,0,0.1c0,1.9,3,1.9,3,0c0,0,0-0.1,0-0.1C644.7,239.5,641.7,239.5,641.7,241.4L641.7,241.4z"/>
	</g>
</g>
<g>
	<g>
		<path d="M641.6,242.4c0,0.1,0,0.1,0,0.2c0,1.9,3,1.9,3,0c0-0.1,0-0.1,0-0.2C644.6,240.4,641.6,240.4,641.6,242.4L641.6,242.4z"/>
	</g>
</g>
<g>
	<g>
		<path d="M641.4,243.4C641.4,243.4,641.4,243.4,641.4,243.4c0,2,3,2,3,0.1c0,0,0,0,0-0.1C644.4,241.4,641.4,241.4,641.4,243.4
			L641.4,243.4z"/>
	</g>
</g>
<g>
	<g>
		<path d="M641.4,243.7c0,0,0,0.1,0,0.1c0,1.9,3,1.9,3,0c0,0,0-0.1,0-0.1C644.4,241.8,641.4,241.8,641.4,243.7L641.4,243.7z"/>
	</g>
</g>
<g>
	<g>
		<path d="M641.3,245.5c0,0,0,0.1,0,0.1c0,1.9,3,1.9,3,0c0,0,0-0.1,0-0.1C644.3,243.6,641.3,243.6,641.3,245.5L641.3,245.5z"/>
	</g>
</g>
<g>
	<g>
		<path d="M641.6,247.4C641.6,247.6,641.6,247.6,641.6,247.4c0,2,3,2,3,0c0-0.3,0-0.6-0.1-0.8c-0.2-0.8-1-1.3-1.8-1
			C641.8,245.8,641.3,246.6,641.6,247.4L641.6,247.4z"/>
	</g>
</g>
<g>
	<g>
		<path d="M641.4,248.8c0,0.2,0,0.3,0,0.5c0,1.9,3,1.9,3,0c0-0.2,0-0.3,0-0.5C644.4,246.8,641.4,246.8,641.4,248.8L641.4,248.8z"/>
	</g>
</g>
<g>
	<g>
		<path d="M641.6,250.6c0,0.2,0,0.5,0.1,0.7c0.3,0.8,1,1.3,1.8,1c0.7-0.2,1.3-1.1,1-1.8c0,0,0,0.1,0,0.1c0-0.8-0.7-1.5-1.5-1.5
			C642.3,249.1,641.6,249.7,641.6,250.6L641.6,250.6z"/>
	</g>
</g>
<g>
	<g>
		<path d="M641.7,251.5c0,0.3,0.1,0.6,0.2,0.9c0.3,0.8,1,1.3,1.8,1c0.7-0.2,1.3-1.1,1-1.8c0-0.2-0.1-0.2-0.1-0.1
			c-0.1-0.8-0.6-1.5-1.5-1.5C642.4,250,641.6,250.7,641.7,251.5L641.7,251.5z"/>
	</g>
</g>
<g>
	<g>
		<path d="M641.8,252.5c0,0.1,0,0.2,0,0.3c0,1.9,3,1.9,3,0c0-0.1,0-0.2,0-0.3C644.8,250.6,641.8,250.6,641.8,252.5L641.8,252.5z"/>
	</g>
</g>
<g>
	<g>
		<path d="M641.8,253c0,0.1-0.1,0.2-0.1,0.3c0.2-0.3-0.4,0.8-0.2,0.4c-0.3,0.7-0.2,1.6,0.5,2.1c0.7,0.4,1.7,0.2,2.1-0.5
			c0.1-0.2,0.1-0.3,0.2-0.5c0.2-0.4-0.1,0.2,0.1-0.2c0.4-0.7,0.2-1.6-0.5-2.1C643.1,252.1,642.1,252.3,641.8,253L641.8,253z"/>
	</g>
</g>
<g>
	<g>
		<path d="M643,257c1.9,0,1.9-3,0-3S641.1,257,643,257L643,257z"/>
	</g>
</g>
<g>
	<g>
		<path d="M641.5,257.2c0,0.1,0,0.4,0,0.5c0,0.8,0.7,1.5,1.5,1.5c0.8,0,1.5-0.7,1.5-1.5c0-0.5-0.1-0.9-0.1-1.3
			c-0.1-0.8-1.1-1.2-1.8-1C641.7,255.6,641.4,256.4,641.5,257.2L641.5,257.2z"/>
	</g>
</g>
<g>
	<g>
		<path d="M641.5,259c0,0.6,0.1,1.2,0.4,1.7c0.3,0.8,1,1.3,1.8,1c0.7-0.2,1.4-1.1,1-1.8c-0.1-0.2-0.1-0.3-0.2-0.5
			c0-0.1-0.1-0.2-0.1-0.3c0,0.1,0,0.1,0-0.1c0-0.8-0.7-1.5-1.5-1.5C642.2,257.5,641.5,258.2,641.5,259L641.5,259z"/>
	</g>
</g>
<g>
	<g>
		<path d="M642,261.5C642,261.5,642,261.5,642,261.5c0,0.7,0.7,1.4,1.5,1.4c0.8,0,1.5-0.7,1.5-1.5c0-0.2,0-0.5-0.1-0.7
			c-0.3-0.8-1-1.3-1.8-1C642.3,259.9,641.7,260.8,642,261.5L642,261.5z"/>
	</g>
</g>
<g>
	<g>
		<path d="M642,261.8c-0.1,0.2-0.2,0.5-0.3,0.7c-0.1,0.8,0.2,1.6,1,1.8c0.7,0.2,1.7-0.2,1.8-1c0-0.2,0-0.2,0,0
			c0.4-0.7,0.2-1.6-0.5-2.1C643.3,260.9,642.3,261.1,642,261.8L642,261.8z"/>
	</g>
</g>
<g>
	<g>
		<path d="M641.4,263.9c0,0.1,0,0.2,0,0.3c0,1.9,3,1.9,3,0c0-0.1,0-0.2,0-0.3C644.4,261.9,641.4,261.9,641.4,263.9L641.4,263.9z"/>
	</g>
</g>
<g>
	<g>
		<path d="M641.4,264.9c0,0.1,0,0.2,0,0.3c0,1.9,3,1.9,3,0c0-0.1,0-0.2,0-0.3C644.4,262.9,641.4,262.9,641.4,264.9L641.4,264.9z"/>
	</g>
</g>
<g>
	<g>
		<path d="M641.6,266.3c0,0,0,0.1,0,0.1c0,1.9,3,1.9,3,0c0,0,0-0.1,0-0.1C644.6,264.4,641.6,264.4,641.6,266.3L641.6,266.3z"/>
	</g>
</g>
<g>
	<g>
		<path d="M643.7,244.4c1.9,0,1.9-3,0-3S641.8,244.4,643.7,244.4L643.7,244.4z"/>
	</g>
</g>
<g>
	<g>
		<path d="M644,243.3c1.9,0,1.9-3,0-3S642.1,243.3,644,243.3L644,243.3z"/>
	</g>
</g>
<g>
	<g>
		<path d="M644.1,242.3c1.9,0,1.9-3,0-3S642.2,242.3,644.1,242.3L644.1,242.3z"/>
	</g>
</g>
<g>
	<g>
		<path d="M644.4,240.8c1.9,0,1.9-3,0-3S642.5,240.8,644.4,240.8L644.4,240.8z"/>
	</g>
</g>
<g>
	<g>
		<path d="M642.7,239.6c0,0.1,0,0.3,0,0.4c0,1.9,3,1.9,3,0c0-0.1,0-0.3,0-0.4C645.7,237.7,642.7,237.7,642.7,239.6L642.7,239.6z"/>
	</g>
</g>
<g>
	<g>
		<path d="M644.1,242.3c1.9,0,1.9-3,0-3S642.2,242.3,644.1,242.3L644.1,242.3z"/>
	</g>
</g>
<g>
	<g>
		<path d="M642.6,241.9c0,0.1,0,0.2,0,0.3c0,1.9,3,1.9,3,0c0-0.1,0-0.2,0-0.3C645.6,240,642.6,240,642.6,241.9L642.6,241.9z"/>
	</g>
</g>
<g>
	<g>
		<path d="M642.6,243.2c0,0.1,0,0.2,0,0.3c0,1.9,3,1.9,3,0c0-0.1,0-0.2,0-0.3C645.6,241.3,642.6,241.3,642.6,243.2L642.6,243.2z"/>
	</g>
</g>
<g>
	<g>
		<path d="M644.1,245.1c1.9,0,1.9-3,0-3S642.2,245.1,644.1,245.1L644.1,245.1z"/>
	</g>
</g>
<g>
	<g>
		<path d="M644.1,244.2c1.9,0,1.9-3,0-3S642.2,244.2,644.1,244.2L644.1,244.2z"/>
	</g>
</g>
<g>
	<g>
		<path d="M644.3,243.6c1.9,0,1.9-3,0-3S642.4,243.6,644.3,243.6L644.3,243.6z"/>
	</g>
</g>
<g>
	<g>
		<path d="M643.3,232.3c1.9,0,1.9-3,0-3S641.3,232.3,643.3,232.3L643.3,232.3z"/>
	</g>
</g>
<g>
	<g>
		<path d="M642.2,230.2c0,0-0.1,0.1-0.1,0.1c-0.6,0.6-0.6,1.5,0,2.1c0.6,0.6,1.5,0.6,2.1,0c0,0,0.1-0.1,0.1-0.1
			c0.6-0.6,0.6-1.5,0-2.1C643.7,229.6,642.8,229.6,642.2,230.2L642.2,230.2z"/>
	</g>
</g>
<g>
	<g>
		<path d="M643.1,233.4c1.9,0,1.9-3,0-3S641.1,233.4,643.1,233.4L643.1,233.4z"/>
	</g>
</g>
<g>
	<g>
		<path d="M641.6,232.1c0,0.1,0,0.3,0,0.4c0,1.9,3,1.9,3,0c0-0.1,0-0.3,0-0.4C644.6,230.1,641.6,230.1,641.6,232.1L641.6,232.1z"/>
	</g>
</g>
<g>
	<g>
		<path d="M641.7,232.8C641.7,232.8,641.7,232.9,641.7,232.8c0,2,3,2,3,0.1c0,0,0,0,0-0.1C644.7,230.9,641.7,230.9,641.7,232.8
			L641.7,232.8z"/>
	</g>
</g>
<g>
	<g>
		<path d="M643.5,234.8c1.9,0,1.9-3,0-3S641.6,234.8,643.5,234.8L643.5,234.8z"/>
	</g>
</g>
<g>
	<g>
		<path d="M643.5,234.3c1.9,0,1.9-3,0-3S641.6,234.3,643.5,234.3L643.5,234.3z"/>
	</g>
</g>
<g>
	<g>
		<path d="M643.5,233.6c1.9,0,1.9-3,0-3S641.6,233.6,643.5,233.6L643.5,233.6z"/>
	</g>
</g>
<g>
	<g>
		<path d="M643.5,233.2c1.9,0,1.9-3,0-3S641.6,233.2,643.5,233.2L643.5,233.2z"/>
	</g>
</g>
<g>
	<g>
		<path d="M643.5,232.1c1.9,0,1.9-3,0-3S641.6,232.1,643.5,232.1L643.5,232.1z"/>
	</g>
</g>
<g>
	<g>
		<path d="M643.5,231.1c1.9,0,1.9-3,0-3S641.6,231.1,643.5,231.1L643.5,231.1z"/>
	</g>
</g>
<g>
	<g>
		<path d="M638,151.9c1.9,0,1.9-3,0-3S636.1,151.9,638,151.9L638,151.9z"/>
	</g>
</g>
<g>
	<g>
		<path d="M638.1,152.5c1.9,0,1.9-3,0-3S636.2,152.5,638.1,152.5L638.1,152.5z"/>
	</g>
</g>
<g>
	<g>
		<path d="M638.1,154.1c1.9,0,1.9-3,0-3S636.2,154.1,638.1,154.1L638.1,154.1z"/>
	</g>
</g>
<g>
	<g>
		<path d="M340.3,460.1c1.9,0,1.9-3,0-3S338.3,460.1,340.3,460.1L340.3,460.1z"/>
	</g>
</g>
<g>
	<g>
		<path d="M339,460.5c1.9,0,1.9-3,0-3S337.1,460.5,339,460.5L339,460.5z"/>
	</g>
</g>
<g>
	<g>
		<path d="M336.8,460.6c1.9,0,1.9-3,0-3S334.8,460.6,336.8,460.6L336.8,460.6z"/>
	</g>
</g>
<g>
	<g>
		<path d="M336.4,460.6c1.9,0,1.9-3,0-3S334.4,460.6,336.4,460.6L336.4,460.6z"/>
	</g>
</g>
<g>
	<g>
		<path d="M335.9,457.9c0,0-0.1,0-0.1,0c-1.9,0-1.9,3,0,3c0,0,0.1,0,0.1,0C337.8,460.9,337.8,457.9,335.9,457.9L335.9,457.9z"/>
	</g>
</g>
<g>
	<g>
		<path d="M335.3,460.9c1.9,0,1.9-3,0-3S333.3,460.9,335.3,460.9L335.3,460.9z"/>
	</g>
</g>
<g>
	<g>
		<path d="M334.3,461.4c1.9,0,1.9-3,0-3S332.3,461.4,334.3,461.4L334.3,461.4z"/>
	</g>
</g>
<g>
	<g>
		<path d="M333.9,458.4c0,0-0.1,0-0.1,0c-1.9,0-1.9,3,0,3c0,0,0.1,0,0.1,0C335.8,461.4,335.8,458.4,333.9,458.4L333.9,458.4z"/>
	</g>
</g>
<g>
	<g>
		<path d="M333,461.8c1.9,0,1.9-3,0-3S331.1,461.8,333,461.8L333,461.8z"/>
	</g>
</g>
<g>
	<g>
		<path d="M334.6,461.8c0.5-0.1,1-0.1,1.5-0.3c0.8-0.3,1.3-1,1-1.8c-0.2-0.7-1.1-1.3-1.8-1c-0.2,0.1-0.3,0.1-0.5,0.1
			c0,0-0.5,0.1-0.3,0.1c-0.8,0.1-1.5,0.6-1.5,1.5C333.1,461,333.8,461.8,334.6,461.8L334.6,461.8z"/>
	</g>
</g>
<g>
	<g>
		<path d="M336.6,461c0.6,0.3,1.2,0.4,1.9,0.3c0.8-0.1,1.2-1.1,1-1.8c-0.2-0.9-1-1.2-1.8-1c0.1,0,0.3,0,0.4,0
			c-0.7-0.4-1.6-0.2-2.1,0.5C335.7,459.7,335.9,460.7,336.6,461L336.6,461z"/>
	</g>
</g>
<g>
	<g>
		<path d="M339.8,461.4c1.9,0,1.9-3,0-3S337.8,461.4,339.8,461.4L339.8,461.4z"/>
	</g>
</g>
<g>
	<g>
		<path d="M323.9,456.2c-3,0.5-6.2,0.3-9.1,0.9c-2.7,0.6-4.8,1.1-7.6,0.5c-1.7-0.4-3.3-0.8-5.1-1c0,1,0,2,0,3
			c3.9-0.5,7.8-0.4,11.5,0.6c1.1,0.3,2,0.1,3.1-0.2c2.1-0.6,4-0.8,6.2-1c-0.1-1-0.3-2-0.4-2.9c-3.6,0.7-6.9-0.1-10.5,0.5
			c-4.6,0.8-9-0.2-13.7,0.1c-1.9,0.1-1.9,3.1,0,3c3.7-0.2,8,1.3,11.6,0.5c4.5-1,8.9-0.3,13.4-1.2c1.6-0.3,1.3-3.1-0.4-2.9
			c-2.7,0.3-7.8,1.7-10.1,0.5c-1-0.6-2.3-0.4-3.4-0.3c-2.4,0.2-4.9,0.1-7.3,0.4c-1.9,0.2-1.9,2.8,0,3c3.4,0.4,6.6,2,10.1,1.2
			c4.1-1,8.3-1,12.5-1.7C326.6,458.7,325.7,455.9,323.9,456.2L323.9,456.2z"/>
	</g>
</g>
<g>
	<g>
		<path d="M290.5,460.1c-2,0.1-3.8-0.6-5.7-0.6c-2,0.1-1.8,1.3-4.8,1c-5.6-0.7-11.6-0.4-17.3-0.4c-5.5,0-11.1-0.2-16.6,0.1
			c-4.6,0.3-9.4-0.1-13.9,1c-1.9,0.4-1.1,3.3,0.8,2.9c4.6-1.1,10-0.7,14.7-0.9c5.6-0.3,11.4,0,17,0c5,0,10.3-0.2,15.3,0.4
			c1.3,0.2,2.8,0.4,4-0.3c1.8-1.1,4.4,0,6.5-0.1C292.4,463,292.4,460,290.5,460.1L290.5,460.1z"/>
	</g>
</g>
<g>
	<g>
		<path d="M347.2,460.6c1.9,1.7,3.3,1.7,5.8,1.4c3-0.4,5.8,1,8.8,0.3c4.5-0.9,8-0.3,12.3,0.6c2.8,0.6,5.3-0.1,7.8-1.4
			c1.7-0.8,0.2-3.4-1.5-2.6c-5.3,2.6-9.5-1.2-14.8-0.4c-3.4,0.5-6.2,1.2-9.7,0.6c-1.9-0.3-5.2,0.7-6.7-0.7
			C347.9,457.1,345.7,459.3,347.2,460.6L347.2,460.6z"/>
	</g>
</g>
<g>
	<g>
		<path d="M414.8,458.5c1.9,0,1.9-3,0-3S412.8,458.5,414.8,458.5L414.8,458.5z"/>
	</g>
</g>
<g>
	<g>
		<path d="M413.9,459.7c2.5,0.6,5.1-0.1,7.6-0.2c1.9,0,1.9-3,0-3c-2.2,0-4.7,0.9-6.9,0.3C412.8,456.3,412,459.2,413.9,459.7
			L413.9,459.7z"/>
	</g>
</g>
<g>
	<g>
		<path d="M353.4,458.9c-7,0.1-13.7,0.6-20.7,1.1c-3.2,0.3-6.3-0.8-9.5-0.4c-3.1,0.4-7.3,1.2-10.3,0.4c-1.9-0.5-2.7,2.4-0.8,2.9
			c2.3,0.7,3.9,1,6.2,0.3c3.9-1.2,8.8-0.7,12.7-0.3c3.3,0.3,6.7-0.6,10-0.9c4.1-0.4,8.3-0.1,12.4-0.2
			C355.3,461.8,355.3,458.8,353.4,458.9L353.4,458.9z"/>
	</g>
</g>
<path d="M290.8,461.2c-0.9-0.5-1.8-0.7-2.7-0.7c0.4-0.1,0.7-0.1,1.1-0.1c1.9-0.1,1.9-3.1,0-3c-2.5,0.1-4.7,1-7.2,1
	c-2.9,0-5.8-0.5-8.7-0.7c-5.7-0.4-10.9,0.1-16.6,0.6c-10.5,0.9-21-1.5-31.4,0.4c-1.9,0.3-1.1,3.2,0.8,2.9
	c10.6-1.9,21.5,0.5,32.2-0.4c5.1-0.4,9.8-0.7,14.9-0.4c2.5,0.1,5,0.3,7.4,0.6c-0.6,0.8-0.2,2.4,1.2,2.5c2.4,0.1,5.1-1,7.4,0.2
	C291,464.6,292.5,462.1,290.8,461.2z"/>
<g>
	<g>
		<path d="M561.5,445.6c1.9,0,1.9-3,0-3S559.6,445.6,561.5,445.6L561.5,445.6z"/>
	</g>
</g>
<g>
	<g>
		<path d="M560.8,445.3c1.9,0,1.9-3,0-3S558.8,445.3,560.8,445.3L560.8,445.3z"/>
	</g>
</g>
<path d="M561.5,441.2c-0.9-3.9-0.9-8.2-0.8-12.1c0.2-8.4-0.2-17.2,1.3-25.5c0.3-1.9-2.6-2.7-2.9-0.8c-1.2,7.1-1,14.2-1.1,21.4
	c-0.1,3.9-0.4,7.7-0.1,11.5c0.3,3.6,1.8,8.1,1.2,11.6c-0.3,1.9,2.6,2.7,2.9,0.8C562.4,445.6,562,443.7,561.5,441.2z"/>
<path d="M339.3,455.3c-1.5,0-3,0.3-4.5,0.6c-0.2-0.2-0.5-0.3-1-0.2c-3,0.3-6.3-0.1-9.3,0.5c-0.7,0.2-1,0.7-1.1,1.3
	c-1.1,0.2-2.1,0.1-3.2,0.2c-0.2-0.4-0.6-0.8-1.3-0.7c-3.6,0.4-6.5-0.3-10-1.2c-3.3-0.9-5.6-0.1-8.8,0.2c-1.9,0.2-1.9,3.2,0,3
	c3.3-0.3,5.7-0.9,9.1-0.1c3.3,0.9,5.9,1.4,9.3,1.1c0.2,0.3,0.5,0.5,0.9,0.6c3,0.6,6,0.2,9-0.2c3.7-0.4,7.1-2.1,10.8-2.2
	C341.3,458.3,341.3,455.3,339.3,455.3z"/>
<path d="M181.3,459.1c-3.1,0.7-5.7-1.8-7.7-3.8c-1.4-1.4-3.5,0.8-2.1,2.1c2.9,2.9,6.3,5.5,10.6,4.6
	C183.9,461.5,183.2,458.6,181.3,459.1z"/>
<path d="M315.8,254.5c-1.7-0.9-3-1.3-4.9-1.4c-3.5-0.2-6-0.7-9.3-1.9c-2.4-0.8-4.9-0.9-7.3-1.5c-2.8-0.8-5.4,0.5-8.2-1.1
	c0,0,0,0-0.1,0c-0.1,0-0.2,0-0.3,0c-0.2,0-0.3,0-0.5,0c-0.1,0-0.2,0-0.3,0c-0.1,0-0.3,0-0.4,0c-0.8,0.6-1.1,1.9,0,2.6
	c1.1,0.6,2.4,1.4,3.7,1.5c3.1,0,6,0.8,8.9,0.9c2.7,0.1,5.3,1,7.8,2c3.1,1.1,6.3,0,9.3,1.6C316,257.9,317.6,255.3,315.8,254.5z"/>
<path d="M300,275.3c-2,0-2,3,0,3S302,275.3,300,275.3z"/>
</svg>
